<svg width="24" height="24" viewBox="0 0 24 24" fill="none" xmlns="http://www.w3.org/2000/svg">
<path d="M20.4603 12.1508C20.4603 11.5468 20.4023 10.9238 20.3053 10.3398H11.9023V13.7848H16.7153C16.6195 14.3343 16.4116 14.8581 16.1045 15.3236C15.7974 15.7892 15.3977 16.1865 14.9303 16.4908L17.8023 18.7298C19.4903 17.1528 20.4603 14.8568 20.4603 12.1508Z" fill="#4280EF"/>
<path d="M11.9013 20.871C14.3083 20.871 16.3263 20.073 17.8013 18.711L14.9293 16.491C14.1333 17.036 13.1043 17.348 11.9013 17.348C9.57331 17.348 7.61331 15.771 6.89531 13.668L3.94531 15.946C4.68297 17.425 5.8181 18.6692 7.22339 19.5391C8.62869 20.4091 10.2486 20.8702 11.9013 20.871Z" fill="#34A353"/>
<path d="M6.896 13.6488C6.5273 12.5365 6.5273 11.335 6.896 10.2228L3.946 7.92578C3.32387 9.17097 3 10.5438 3 11.9358C3 13.3277 3.32387 14.7006 3.946 15.9458L6.896 13.6488Z" fill="#F6B704"/>
<path d="M11.9013 6.54362C13.1719 6.52659 14.3985 7.00882 15.3173 7.88662L17.8593 5.31662C16.2471 3.80396 14.1119 2.97399 11.9013 3.00062C10.2486 3.00135 8.62869 3.46253 7.22339 4.33245C5.8181 5.20237 4.68297 6.44661 3.94531 7.92562L6.89531 10.2226C7.61331 8.10062 9.57331 6.54362 11.9013 6.54362Z" fill="#E54335"/>
</svg>
