<svg width="118" height="64" viewBox="0 0 118 64" fill="none" xmlns="http://www.w3.org/2000/svg">
<path fill-rule="evenodd" clip-rule="evenodd" d="M61.4264 23.6422C55.6774 23.6422 55.6774 29.899 55.6774 29.899C55.6774 29.899 55.2176 33.3855 55.6774 36.4097C55.9076 39.4111 56.597 43.1287 61.8862 43.1287C67.4284 43.1287 67.8894 37.7945 67.8894 36.6408V36.1792H64.1858C64.1858 38.4872 63.726 39.8721 61.4264 39.8721C58.8972 39.8721 59.1035 35.6941 59.1035 35.6941C59.1035 35.6941 58.8966 33.1537 59.1035 30.1295C59.3337 26.4353 61.6566 26.6664 61.6566 26.6664C64.416 26.6664 64.416 30.845 64.416 30.845H67.8888V29.8983C67.658 27.5903 67.1988 23.6422 61.4264 23.6422ZM77.8239 23.4111C75.5004 23.4111 74.121 25.0271 74.121 25.0271V16.6927H70.6716V42.8976H74.3512V29.2063C74.3512 29.2063 74.3512 26.6664 76.6748 26.6664C78.9738 26.6664 79.204 28.5135 79.204 29.2063V42.8976H82.4465V28.9758C82.4459 28.9758 82.4459 23.4111 77.8239 23.4111ZM89.1385 38.0263C88.9083 35.2325 89.1385 34.3087 89.1385 34.3087H98.3836C98.3836 32.9232 98.3836 32.4622 98.1534 29.8996C97.9232 27.5909 96.9809 23.6429 91.9212 23.6429C86.1255 23.6429 85.6657 30.1307 85.6657 30.1307C85.6657 30.1307 85.4355 33.3867 85.6657 36.4103C86.1255 39.4117 86.5859 43.3598 92.1281 43.3598C97.6923 43.3598 98.1534 37.7958 98.1534 36.6421H94.2202C94.2202 41.5121 89.5983 41.0511 89.1385 38.0263ZM91.9212 26.6671C94.6806 26.6671 94.2202 31.3079 94.2202 31.3079H89.3681C89.3674 26.2048 91.9212 26.6671 91.9212 26.6671ZM45.9725 23.6422C40.2001 23.6422 39.9699 30.1301 39.9699 30.1301C39.9699 30.1301 39.7397 33.1543 39.9699 36.4097C40.2001 39.4111 40.6599 43.1287 46.4323 43.1287C52.2046 43.1287 52.2046 37.7945 52.4348 36.6408V30.1301C52.4342 27.8214 51.7442 23.6422 45.9725 23.6422ZM48.5017 35.6948C48.5017 38.4872 48.2714 39.8727 46.202 39.8727C43.4193 39.8727 43.6495 35.9487 43.6495 35.9487V30.1307C43.6495 26.6677 46.202 26.6677 46.202 26.6677C48.7319 26.6677 48.7319 30.3847 48.7319 30.3847C48.7319 30.3847 48.5017 34.5398 48.5017 35.6948ZM34.4271 29.2063C34.4271 29.2063 37.1865 28.283 37.1865 23.18C37.1865 17.3848 30.9543 16.9232 29.5743 16.9232H24.2617V42.8976H27.9641V30.8456H29.8039C33.0237 30.8456 33.2766 33.6159 33.2766 33.6159L33.7364 42.8976H37.4161C37.4161 42.8976 37.1859 38.0263 36.9563 33.8471C36.4971 29.6685 34.4271 29.2063 34.4271 29.2063ZM27.9647 27.8214V20.4097C28.8849 20.4097 33.5075 19.9481 33.5075 23.6416C33.5075 28.5142 27.9647 27.8214 27.9647 27.8214Z" fill="#8195A6"/>
<path fill-rule="evenodd" clip-rule="evenodd" d="M91.9215 0H26.5629L0 31.7695L26.5623 64H91.9209L118 31.7695L91.9215 0ZM90.5188 60.9764H27.965L3.7036 31.7695L27.9656 3.23255H90.5188L114.321 31.7695L90.5188 60.9764Z" fill="#8195A6"/>
</svg>
