<svg width="120" height="48" viewBox="0 0 120 48" fill="none" xmlns="http://www.w3.org/2000/svg">
<g clip-path="url(#clip0_1237_13310)">
<path d="M0 48V44.716H23.3578V48H0ZM26.6671 48V44.716H59.9531C59.9531 44.716 56.5531 48 52.05 48H26.6671ZM66.4828 48V44.716H86.6202L85.425 48H66.4828ZM101.058 48L99.8624 44.716H119.817V48H101.058ZM0 41.6134V38.3293H23.3578V41.6134H0ZM26.6671 41.6087V38.3292H63.8155C63.8155 38.3292 63.3817 40.8568 62.6249 41.6087H26.6671ZM66.4828 41.6087V38.3292H88.8281L87.7218 41.6087H66.4828ZM98.6671 41.6087L97.5608 38.3292H119.817V41.6087H98.6671ZM6.71244 35.2267V31.938H16.8281V35.2267H6.71244ZM33.3797 35.2267V31.938H43.4953V35.2267H33.3797ZM53.3344 35.2267V31.938H63.45C63.45 31.938 64.0922 33.6748 64.0922 35.2267H53.3344ZM73.1953 35.2267V31.938H91.1297L89.9344 35.2267H73.1953ZM96.464 35.2267L95.264 31.938H113.287V35.2267H96.464ZM6.71244 28.8353V25.5512H16.8281V28.8353H6.71244ZM33.3797 28.8353V25.5512H59.2171C59.2171 25.5512 61.3786 27.2363 62.0671 28.8353H33.3797ZM73.1953 28.8353V25.5512H83.311V27.3793L83.9532 25.5512H102.483L103.172 27.3793V25.5512H113.288V28.8353H94.2984L93.2906 26.0537L92.2781 28.8353H73.1953ZM6.71244 22.4486V19.1646H16.8281V22.4486H6.71244ZM33.3797 22.4486V19.1646H62.0671C61.3784 20.7583 59.2171 22.4486 59.2171 22.4486H33.3797ZM73.1953 22.4486V19.1646H83.311V22.4486H73.1953ZM85.1484 22.4486L86.3718 19.1646H100.266L101.428 22.4486H85.1484ZM103.172 22.4486V19.1646H113.287V22.4486H103.172ZM6.71244 16.062V12.7781H16.8281V16.062H6.71244ZM33.3797 16.062V12.7781H43.4953V16.062H33.3797ZM53.3344 16.062V12.7781H64.0921C64.0921 14.3279 63.4499 16.062 63.4499 16.062H53.3344ZM73.1953 16.062V12.7781H83.311V16.062H73.1953ZM87.4453 16.062L88.6313 12.7781H97.9453L99.1406 16.062H87.4453ZM103.172 16.062V12.7781H113.287V16.062H103.172ZM0.18276 9.67536V6.38664H23.5405V9.67536H0.18276ZM26.6671 9.67536V6.38664H62.6249C63.3817 7.13964 63.8155 9.67536 63.8155 9.67536H26.6671ZM66.6656 9.67536V6.38664H83.311V9.67536H66.6656ZM89.7468 9.67536L90.9655 6.38664H95.7046L96.8483 9.67536H89.7468ZM103.172 9.67536V6.38664H120V9.67536H103.172ZM0.18276 3.28404V0H23.5405V3.28404H0.18276ZM26.6671 3.28404V0.00468063H52.05C56.5531 0.00468063 59.9531 3.28404 59.9531 3.28404H26.6671ZM66.6656 3.28404V0H83.311V3.28404H66.6656ZM92.0578 3.28404L93.2297 0.0092392L93.4313 0.00468063L94.6219 3.28404H92.0578ZM103.172 3.28404V0H120V3.28404H103.172Z" fill="#8195A6"/>
</g>
<defs>
<clipPath id="clip0_1237_13310">
<rect width="120" height="48" fill="white" transform="matrix(1 0 0 -1 0 48)"/>
</clipPath>
</defs>
</svg>
