<svg width="144" height="34" viewBox="0 0 144 34" fill="none" xmlns="http://www.w3.org/2000/svg">
<path d="M37.1251 33.577H30.625V20.2966C30.625 18.292 29.0001 16.6632 27.0001 16.6632C25.0001 16.6632 23.3751 18.292 23.3751 20.2966V33.577H16.875V20.2966C16.875 14.7213 21.3751 10.1483 27.0001 10.1483C32.6251 10.1483 37.1251 14.6586 37.1251 20.2966V33.577Z" fill="#8195A6"/>
<path d="M62.3746 25.308C61.6246 27.8764 60.1246 30.069 57.9996 31.6977C54.4996 34.1408 50.0621 34.7046 46.0621 33.0758C44.6246 32.4494 43.312 31.5098 42.2495 30.3195C41.187 29.1919 40.312 27.8764 39.7495 26.4356C39.187 24.9948 38.8746 23.4287 38.8746 21.9253C38.8746 20.3592 39.1871 18.8557 39.8121 17.4776C40.4371 16.0368 41.3121 14.7212 42.3746 13.6563C43.4996 12.5287 44.7495 11.6517 46.187 11.0253C47.6246 10.4615 49.187 10.0856 50.687 10.1483C53.2495 10.0856 55.8746 10.9 57.9996 12.4034C60.1246 14.0948 61.6246 16.4126 62.3746 18.981H55.3745C54.937 18.2293 54.2495 17.6029 53.4995 17.227C52.6245 16.7885 51.687 16.6006 50.687 16.6006C49.312 16.5379 47.9371 17.1017 46.9996 18.1667C46.0621 19.2316 45.4996 20.6098 45.4996 22.0506C45.4371 23.554 45.9996 25.0575 46.9996 26.1224C48.7496 27.6885 51.2496 28.0644 53.3121 27.0621C54.0621 26.6862 54.7496 26.1224 55.2496 25.3707L62.3746 25.308Z" fill="#8195A6"/>
<path d="M67.1878 13.6563C68.3128 12.5287 69.6254 11.6517 71.0629 11.0253C72.4379 10.3989 74.0004 10.0856 75.5004 10.0856C77.0629 10.0856 78.6253 10.3989 80.0628 10.9C83.0003 12.0902 85.3128 14.3454 86.6253 17.2897C87.2503 18.7305 87.5629 20.2966 87.5629 21.8626C87.5629 23.4287 87.2504 25.0575 86.6879 26.5609C86.1254 28.0017 85.2503 29.3172 84.1253 30.3822C83.0003 31.5097 81.6879 32.3868 80.2504 33.0132C78.7504 33.6396 77.1879 33.9529 75.5629 33.9529C73.9379 33.9529 72.3754 33.6396 70.8754 33.0132C69.4379 32.3868 68.1254 31.4471 67.0629 30.2569C66.0004 29.1293 65.1254 27.8764 64.5629 26.4356C64.0004 24.9948 63.6878 23.4287 63.6878 21.9253C63.6878 20.3592 64.0003 18.8557 64.6253 17.4149C65.2503 16.0368 66.1253 14.7839 67.1878 13.6563ZM75.6253 27.6259C77.0628 27.6259 78.3753 27.062 79.4378 25.9971C80.4378 24.9322 81.0003 23.554 81.0003 22.0506C81.0003 20.5471 80.4378 19.1689 79.4378 18.0414C77.5003 15.9115 74.1879 15.8488 72.1254 17.8534C72.0004 17.9161 72.0003 17.9787 71.9378 18.0414C70.9378 19.1063 70.3753 20.5471 70.3753 22.0506C70.3753 23.554 70.9378 24.9322 71.9378 25.9971C72.8753 26.9994 74.2503 27.6259 75.6253 27.6259Z" fill="#8195A6"/>
<path d="M89.3751 22.8649V33.5143H95.8752V22.8649C95.8752 19.4195 98.6877 16.6006 102.125 16.6006V10.0856C95.1252 10.0856 89.3751 15.8488 89.3751 22.8649Z" fill="#8195A6"/>
<path d="M115.875 16.7885V10.0856H111.125V5.13679H104.625V33.5143H111.125V16.7259H115.875V16.7885Z" fill="#8195A6"/>
<path d="M13.75 12.4661V10.023H0V16.7259H7.31256V33.6396H13.8125V12.4661H13.75Z" fill="#8195A6"/>
<path d="M10.688 6.64025C12.5174 6.64025 14.0005 5.15375 14.0005 3.3201C14.0005 1.48646 12.5174 0 10.688 0C8.85851 0 7.3755 1.48646 7.3755 3.3201C7.3755 5.15375 8.85851 6.64025 10.688 6.64025Z" fill="#8195A6"/>
<path d="M140 26.7488V9.96034H134.375V11.7144C133.812 11.3385 133.187 11.0253 132.5 10.7747C131.062 10.2109 129.5 9.8977 128 9.96034C126.437 9.96034 125 10.2736 123.563 10.9C122.125 11.5264 120.812 12.4034 119.75 13.4684C118.625 14.5333 117.812 15.8488 117.187 17.2897C116.625 18.6678 116.312 20.2339 116.312 21.7373C116.312 23.3034 116.625 24.7442 117.125 26.185C117.687 27.6258 118.5 28.8787 119.562 30.0063C120.625 31.1339 121.937 32.0735 123.375 32.7C124.875 33.3264 126.437 33.6396 128 33.6396C129.562 33.6396 131.188 33.3264 132.625 32.7C133.313 32.3868 133.938 32.0736 134.5 31.6977V33.389H144V26.6862L140 26.7488ZM131.937 25.6839C130 27.7511 126.687 27.8764 124.625 25.8718C124.562 25.8092 124.5 25.7465 124.437 25.6839C123.437 24.6189 122.875 23.2408 122.875 21.8C122.875 20.2965 123.375 18.9184 124.437 17.8534C126.375 15.7862 129.688 15.6609 131.75 17.6655C131.875 17.7281 131.875 17.7908 131.937 17.8534C132.937 18.9184 133.5 20.3592 133.5 21.8C133.437 23.2408 132.937 24.6189 131.937 25.6839Z" fill="#8195A6"/>
</svg>
