<svg width="180" height="80" viewBox="0 0 180 80" fill="none" xmlns="http://www.w3.org/2000/svg">
<path fill-rule="evenodd" clip-rule="evenodd" d="M57.0883 40.4585L59.9899 34.0134H64.8423L58.4671 46.5849H55.7086L49.3104 34.0134H54.1621L57.0883 40.4585ZM87.2463 37.4687C89.0064 37.4687 90.0293 38.7671 90.0293 40.3118C90.0293 41.9037 89.0072 43.1296 87.2463 43.1296C85.4862 43.1296 84.4633 41.9037 84.4633 40.3118C84.4633 38.768 85.4862 37.4687 87.2463 37.4687ZM89.8861 46.5849H94.2148V26.2445H89.8861V35.2385C88.9827 34.1357 87.5081 33.5969 86.1048 33.5969C82.4896 33.5969 79.9922 36.6845 79.9922 40.2873C79.9922 43.8901 82.537 47.0022 86.1522 47.0022C87.5793 47.0022 89.0776 46.439 89.8394 45.1886H89.8869L89.8861 46.5849ZM102.826 37.4687C104.586 37.4687 105.609 38.7671 105.609 40.3118C105.609 41.9037 104.586 43.1296 102.826 43.1296C101.066 43.1296 100.043 41.9037 100.043 40.3118C100.043 38.768 101.066 37.4687 102.826 37.4687ZM109.793 34.0134H105.464V35.2385C104.56 34.1357 103.086 33.5969 101.683 33.5969C98.0681 33.5969 95.5691 36.6845 95.5691 40.2873C95.5691 43.8901 98.1156 47.0022 101.731 47.0022C103.157 47.0022 104.655 46.439 105.417 45.1886H105.464V46.5849H109.793V34.0134ZM116.953 46.5849H112.624V37.6887H111.102V34.0126H112.624V32.4207C112.624 30.6804 112.672 29.4064 113.86 28.0093C114.931 26.7108 116.477 26 118.118 26C118.784 26 119.379 26.1223 119.974 26.441V30.2883C119.473 30.0674 119.022 29.8718 118.45 29.8718C117.333 29.8718 116.953 30.5581 116.953 31.9797V34.0134H119.973V37.6896H116.953V46.5849H116.953ZM140.546 35.6306H140.595C141.593 34.1112 142.807 33.5969 144.496 33.5969C147.777 33.5969 149.087 35.7284 149.087 38.8169V46.5849H144.757V40.4585C144.757 39.2578 144.947 37.15 142.807 37.15C141.047 37.15 140.547 38.4981 140.547 40.0664V46.5849H136.218V34.0134H140.547V35.6306H140.546ZM154.96 38.4729C155.221 37.1744 156.269 36.4881 157.53 36.4881C158.695 36.4881 159.764 37.2722 159.979 38.4729H154.96ZM163.999 40.5816C163.999 36.2925 161.548 33.5969 157.315 33.5969C153.343 33.5969 150.56 36.1213 150.56 40.3126C150.56 44.649 153.581 47.0022 157.625 47.0022C160.408 47.0022 163.142 45.6557 163.833 42.6895H159.67C159.194 43.5217 158.529 43.8404 157.602 43.8404C155.817 43.8404 154.89 42.8615 154.89 41.0462H164V40.5816H163.999ZM78.3871 40.6183C78.387 41.5464 78.2094 42.4655 77.8646 43.323C77.5198 44.1804 77.0145 44.9595 76.3774 45.6158C75.7404 46.272 74.9842 46.7925 74.1519 47.1476C73.3197 47.5027 72.4277 47.6854 71.5269 47.6853C70.6261 47.6852 69.7342 47.5023 68.902 47.147C68.0698 46.7917 67.3137 46.271 66.6768 45.6146C66.0399 44.9582 65.5348 44.179 65.1901 43.3214C64.8455 42.4639 64.6682 41.5448 64.6683 40.6166C64.6685 38.7421 65.3914 36.9445 66.6779 35.6191C67.9645 34.2938 69.7093 33.5494 71.5285 33.5496C73.3477 33.5498 75.0923 34.2947 76.3786 35.6203C77.6648 36.9459 78.3873 38.7438 78.3871 40.6183ZM67.6989 40.5881C67.6991 41.368 67.9236 42.1304 68.3441 42.7789C68.7646 43.4274 69.3622 43.933 70.0614 44.2317C70.7606 44.5304 71.5301 44.6088 72.2725 44.4571C73.015 44.3053 73.6971 43.9303 74.2328 43.3792C74.7685 42.8282 75.1336 42.1259 75.2821 41.3611C75.4306 40.5964 75.3557 39.8034 75.067 39.0824C74.7783 38.3615 74.2886 37.7449 73.6599 37.3105C73.0313 36.8762 72.2917 36.6436 71.5348 36.6421C72.121 34.65 73.5014 33.8406 73.5014 33.8406C70.6449 33.8406 68.1783 36.2851 67.6981 39.3777C67.6554 39.6678 67.6989 40.5881 67.6989 40.5881ZM43.0665 40.0558C43.0665 47.7579 37.0077 54 29.5337 54C22.0588 54 16 47.7579 16 40.0558C16 32.3538 22.0588 26.1109 29.5337 26.1109C37.0077 26.1109 43.0665 32.3538 43.0665 40.0558ZM21.9789 39.9955C21.9789 44.2936 25.3615 47.779 29.5337 47.779C33.7066 47.779 37.0892 44.2944 37.0892 39.9955C37.0892 35.7007 33.7145 32.2193 29.5487 32.2104C30.706 28.2791 33.4289 26.6839 33.4289 26.6839C27.7917 26.6839 22.9266 31.5053 21.9789 37.6072C21.8927 38.1811 21.9789 39.9955 21.9789 39.9955ZM121.023 40.0738C121.023 36.1702 124.094 33.0067 127.882 33.0067C129.239 33.0067 130.565 33.4212 131.692 34.1977C132.82 34.9743 133.699 36.078 134.219 37.3693C134.738 38.6607 134.873 40.0816 134.609 41.4525C134.344 42.8233 133.691 44.0826 132.732 45.0709C131.773 46.0593 130.551 46.7323 129.22 47.005C127.89 47.2777 126.511 47.1378 125.257 46.6029C124.004 46.068 122.933 45.1622 122.179 44C121.426 42.8378 121.023 41.4715 121.023 40.0738ZM131.712 40.1039C131.711 39.3238 131.487 38.5613 131.066 37.9127C130.646 37.264 130.048 36.7584 129.349 36.4596C128.649 36.1609 127.88 36.0824 127.137 36.2342C126.394 36.3859 125.712 36.7611 125.176 37.3122C124.641 37.8634 124.275 38.5658 124.127 39.3307C123.978 40.0957 124.053 40.8888 124.342 41.6099C124.631 42.331 125.121 42.9478 125.749 43.3822C126.378 43.8166 127.118 44.0493 127.875 44.0507C127.288 46.042 125.907 46.8514 125.907 46.8514C128.765 46.8514 131.23 44.4077 131.712 41.3144C131.755 41.0242 131.712 40.1039 131.712 40.1039Z" fill="#8195A6"/>
</svg>
