<svg width="68" height="56" viewBox="0 0 68 56" fill="none" xmlns="http://www.w3.org/2000/svg">
<g clip-path="url(#clip0_1237_13316)">
<path d="M67.8355 3.75455H64.7148V14.8018H67.8355V3.75455Z" fill="#8195A6"/>
<path fill-rule="evenodd" clip-rule="evenodd" d="M64.7159 34.9491H64.1637V23.3164H61.043V34.9491V38.0164H64.1637H64.7159H67.8494V34.9491V27.1346H64.7159V34.9491Z" fill="#8195A6"/>
<path fill-rule="evenodd" clip-rule="evenodd" d="M49.3287 27.1346H48.6609V23.3164H45.5402V27.1346H41.7389V30.2273H41.7517V34.9491H40.9683V26.4091H44.8724V23.3164H40.9683H37.8477V26.4091V34.9491V38.0164H40.9683H41.7517H44.8724V34.9491V30.2273H45.5402V38.0164H48.6609V30.2273H49.3287V38.0164H52.4494V23.3164H49.3287V27.1346Z" fill="#8195A6"/>
<path fill-rule="evenodd" clip-rule="evenodd" d="M33.9461 27.1346H33.0471V23.3164H29.9265H7.68359V26.4091H29.9265V38.0164H33.0471V30.2273H33.9461V38.0164H37.0668V23.3164H33.9461V27.1346Z" fill="#8195A6"/>
<path fill-rule="evenodd" clip-rule="evenodd" d="M56.4683 23.3164H53.3477V26.4091V27.1218V30.2146V38.0036H56.4683V30.2146H57.1361V38.0036H60.2568V30.2146V27.1218V26.4091V23.3164H57.1361H56.4683ZM57.1361 27.1346H56.4683V26.4218H57.1361V27.1346Z" fill="#8195A6"/>
<path fill-rule="evenodd" clip-rule="evenodd" d="M3.27693 14.8018H3.84199H6.96267V0H3.84199V11.7091H3.27693V3.75455H0.15625V14.8018H3.27693Z" fill="#8195A6"/>
<path d="M17.7121 0H14.707V3.09273H17.7121V0Z" fill="#8195A6"/>
<path d="M21.5631 0H18.6094V3.09273H21.5631V0Z" fill="#8195A6"/>
<path d="M21.5631 3.75455H18.6094V6.84727H21.5631V3.75455Z" fill="#8195A6"/>
<path d="M21.5631 7.78909H18.6094V10.8818H21.5631V7.78909Z" fill="#8195A6"/>
<path d="M67.8352 17.5127H0.15625V20.6055H67.8352V17.5127Z" fill="#8195A6"/>
<path fill-rule="evenodd" clip-rule="evenodd" d="M7.96437 27.1346H7.68184V34.2873H7.96437H10.7512H26.1362V34.9491H6.96267V30.2273V27.1346V26.4218V23.3291H3.84199H3.28977H0.15625V26.4218V27.1346V30.2273V38.0164H3.27693V30.2273H3.82915V38.0164H6.23066H6.94983H26.1234H29.2441V34.9491V34.2873V31.1691V31.1309H10.7512V30.2273H29.2569V27.1346H10.7512H7.96437ZM3.27693 27.1346V26.4218H3.82915V27.1346H3.27693Z" fill="#8195A6"/>
<path fill-rule="evenodd" clip-rule="evenodd" d="M10.7529 14.8018H11.7546H14.7083H61.0434H64.1641V0H62.5973H61.0434H22.4009V3.09273H61.0434V3.75455H22.4009V6.84727H61.0434V7.78909H22.4009V10.8818H61.0434V11.7091H14.7083V10.8818H17.7263V7.78909H14.7083V6.84727H17.7263V3.75455H14.7083H11.806H11.7546V11.7091H10.7529V3.09273H13.6553V0H10.7529H7.74781H7.68359V14.8018H10.7529Z" fill="#8195A6"/>
<path fill-rule="evenodd" clip-rule="evenodd" d="M65.7808 3.09273H67.8484V2.04909H65.7808V1.04364H67.8484V0H65.7808H64.9203H64.7148V3.09273H64.9203H65.7808Z" fill="#8195A6"/>
<path d="M11.922 43.9091C11.9606 43.9091 11.9991 43.8964 12.0248 43.8836C12.0633 43.8709 12.089 43.8455 12.1147 43.8327C12.1404 43.8073 12.1532 43.7818 12.1789 43.7436C12.1917 43.7055 12.2046 43.68 12.2046 43.6418C12.2046 43.6036 12.1917 43.5655 12.1789 43.54C12.166 43.5018 12.1404 43.4764 12.1147 43.4509C12.089 43.4255 12.0633 43.4127 12.0248 43.3873C11.9862 43.3745 11.9606 43.3618 11.922 43.3618C11.8835 43.3618 11.845 43.3745 11.8193 43.3873C11.7808 43.4 11.7551 43.4255 11.7294 43.4509C11.7037 43.4764 11.6909 43.5018 11.678 43.54C11.6652 43.5782 11.6523 43.6036 11.6523 43.6418C11.6523 43.7182 11.678 43.7818 11.7294 43.8327C11.7936 43.8836 11.845 43.9091 11.922 43.9091Z" fill="#8195A6"/>
<path d="M17.3141 46.8364C17.3912 46.76 17.4554 46.6709 17.4939 46.5691C17.5453 46.4673 17.5581 46.3527 17.5581 46.2127V45.5891C17.5581 45.4236 17.5324 45.2709 17.4682 45.1309C17.404 44.9909 17.3141 44.8636 17.2114 44.7618C17.1086 44.66 16.9802 44.5709 16.8261 44.5073C16.6848 44.4436 16.5179 44.4182 16.3638 44.4182C16.1968 44.4182 16.0427 44.4436 15.9015 44.5073C15.7602 44.5709 15.6318 44.6473 15.5162 44.7618C15.4134 44.8636 15.3235 44.9909 15.2593 45.1436C15.1951 45.2836 15.1694 45.4491 15.1694 45.6145V46.5691H14.8612H14.6429H13.9237H13.6926H13.3972V45.6654C13.3972 45.4364 13.3715 45.2454 13.3073 45.0927C13.2431 44.94 13.166 44.8127 13.0633 44.7109C12.9606 44.6091 12.845 44.5455 12.7037 44.4945C12.5625 44.4564 12.4212 44.4309 12.2671 44.4309C12.1643 44.4309 12.0488 44.4436 11.946 44.4691C11.8304 44.4945 11.7277 44.52 11.6121 44.5709C11.5094 44.6091 11.3938 44.66 11.2911 44.7236C11.1883 44.7745 11.0984 44.8382 11.0085 44.9145V44.4182H10.482V46.5564H10.1738H9.91694H9.22345H8.99229H8.27312H8.04196H7.32279H7.06594H6.34678H6.11561H5.39645H5.16528H4.44611H4.21495H3.49578H3.26462H2.96925V43.3873H2.44272V46.9C2.44272 47.0145 2.41703 47.1164 2.36566 47.2054C2.31429 47.2945 2.25008 47.3709 2.17303 47.4218C2.09597 47.4855 2.00608 47.5236 1.90334 47.5491C1.8006 47.5745 1.69786 47.5873 1.59512 47.5873C1.49239 47.5873 1.38965 47.5745 1.28691 47.5491C1.18417 47.5236 1.09427 47.4727 1.01722 47.4218C0.940166 47.3582 0.875955 47.2945 0.824585 47.2054C0.773216 47.1164 0.747532 47.0145 0.747532 46.9V44.9018H0.195312V46.9C0.195312 47.1036 0.233839 47.2818 0.310893 47.4345C0.387947 47.5873 0.490685 47.7145 0.619109 47.8164C0.747532 47.9182 0.901639 47.9945 1.05575 48.0455C1.2227 48.0964 1.38965 48.1218 1.5566 48.1218C1.7107 48.1218 1.86481 48.0964 2.01892 48.0582C2.17303 48.02 2.31429 47.9436 2.42987 47.8673C2.5583 47.7782 2.66103 47.6764 2.75093 47.5491C2.84083 47.4218 2.8922 47.2691 2.91788 47.1036H3.2261H3.45726H4.17643H4.40759H5.12676H5.35792H6.07709H6.30825H7.06594H7.29711H8.01628H8.24744H8.96661H9.19777H9.89125H10.1481H13.6669H13.8981H14.6172H14.8484H16.6848C16.8004 47.1036 16.916 47.0782 17.0187 47.04C17.1472 46.9636 17.237 46.9127 17.3141 46.8364ZM12.8578 46.5564H10.9957V45.7545C10.9957 45.6909 11.0085 45.6273 11.0471 45.5509C11.0856 45.4873 11.137 45.4236 11.1883 45.36C11.2525 45.2964 11.3167 45.2455 11.4066 45.1945C11.4837 45.1436 11.5736 45.0927 11.6635 45.0545C11.7534 45.0164 11.8561 44.9909 11.946 44.9654C12.0488 44.94 12.1387 44.9273 12.2414 44.9273C12.3184 44.9273 12.3955 44.94 12.4726 44.9654C12.5496 44.9909 12.6138 45.0291 12.6652 45.0927C12.7166 45.1436 12.7679 45.22 12.7936 45.3091C12.8321 45.3982 12.845 45.5127 12.845 45.64V46.5564H12.8578ZM16.9417 46.4545C16.916 46.48 16.8775 46.5055 16.8389 46.5182C16.8004 46.5309 16.749 46.5436 16.7105 46.5436H15.7088V45.5891C15.7088 45.5 15.7217 45.4109 15.7602 45.3218C15.7987 45.2455 15.8372 45.1691 15.9015 45.1054C15.9657 45.0418 16.0299 45.0036 16.1198 44.9654C16.1968 44.9273 16.2867 44.9145 16.3766 44.9145C16.4665 44.9145 16.5564 44.9273 16.6463 44.9654C16.7234 45.0036 16.8004 45.0418 16.8646 45.1054C16.9288 45.1691 16.9802 45.2327 17.0059 45.3091C17.0444 45.3855 17.0573 45.4745 17.0573 45.5636V46.1873C17.0573 46.2382 17.0444 46.2891 17.0316 46.3273C17.0059 46.3909 16.9802 46.4291 16.9417 46.4545Z" fill="#8195A6"/>
<path d="M16.1836 43.8327C16.2093 43.8582 16.235 43.8709 16.2735 43.8836C16.3121 43.8964 16.3378 43.9091 16.3763 43.9091C16.4533 43.9091 16.5175 43.8836 16.5689 43.8327C16.6203 43.7818 16.646 43.7182 16.646 43.6418C16.646 43.6036 16.6331 43.5655 16.6203 43.54C16.6074 43.5018 16.5818 43.4764 16.5689 43.4509C16.5432 43.4255 16.5175 43.4127 16.479 43.3873C16.4405 43.3745 16.4148 43.3618 16.3763 43.3618C16.3378 43.3618 16.2992 43.3745 16.2735 43.3873C16.235 43.4 16.2093 43.4255 16.1836 43.4509C16.158 43.4764 16.1451 43.5018 16.1194 43.54C16.1066 43.5782 16.0938 43.6036 16.0938 43.6418C16.0938 43.68 16.1066 43.7182 16.1194 43.7436C16.1323 43.7818 16.158 43.8073 16.1836 43.8327Z" fill="#8195A6"/>
<path d="M22.1296 47.0018C22.2324 46.9509 22.3223 46.9 22.3993 46.8236C22.4764 46.7473 22.5406 46.6582 22.5791 46.5564C22.6305 46.4545 22.6433 46.34 22.6433 46.2255V43.3873H22.1168V46.2255C22.1168 46.2764 22.1039 46.3145 22.0911 46.3527C22.0783 46.3909 22.0526 46.4291 22.014 46.4545C21.9884 46.48 21.9498 46.5055 21.9113 46.5309C21.8728 46.5436 21.8214 46.5564 21.7829 46.5564H20.961V44.4182H20.4344V46.5564H19.9336V47.0782H21.77C21.9113 47.0654 22.0269 47.0527 22.1296 47.0018Z" fill="#8195A6"/>
<path d="M21.1166 43.8836H20.7185C20.7056 43.8836 20.6928 43.8709 20.6799 43.8582C20.6671 43.8454 20.6543 43.8327 20.6414 43.8073C20.6286 43.7818 20.6286 43.7691 20.6157 43.7436C20.6157 43.7182 20.6029 43.6927 20.6029 43.6673C20.6029 43.6291 20.6157 43.5909 20.6414 43.5527C20.6671 43.5145 20.7185 43.5018 20.7827 43.5018H21.001V43.2473H20.7698C20.6928 43.2473 20.6286 43.26 20.5644 43.2854C20.513 43.3109 20.4616 43.3363 20.4359 43.3873C20.3974 43.4254 20.3717 43.4763 20.3589 43.5273C20.346 43.5782 20.3332 43.6291 20.3332 43.68C20.3332 43.7563 20.3461 43.82 20.3717 43.8963H20.2305V44.1509H21.0781V43.8836H21.1166Z" fill="#8195A6"/>
<path d="M23.7609 43.3873H23.2344V47.0782H23.7609V43.3873Z" fill="#8195A6"/>
<path d="M28.4883 43.8327C28.514 43.8582 28.5397 43.8709 28.5782 43.8836C28.6168 43.8964 28.6424 43.9091 28.681 43.9091C28.758 43.9091 28.8222 43.8836 28.8736 43.8327C28.925 43.7818 28.9507 43.7182 28.9507 43.6418C28.9507 43.6036 28.9378 43.5655 28.925 43.54C28.9121 43.5018 28.8864 43.4764 28.8736 43.4509C28.8479 43.4255 28.8222 43.4127 28.7837 43.3873C28.7452 43.3745 28.7195 43.3618 28.681 43.3618C28.6424 43.3618 28.6039 43.3745 28.5782 43.3873C28.5397 43.4 28.514 43.4255 28.4883 43.4509C28.4626 43.4764 28.4498 43.5018 28.4241 43.54C28.4113 43.5782 28.3984 43.6036 28.3984 43.6418C28.3984 43.68 28.4113 43.7182 28.4241 43.7436C28.437 43.7818 28.4626 43.8073 28.4883 43.8327Z" fill="#8195A6"/>
<path d="M27.7032 43.8327C27.7289 43.8582 27.7545 43.8709 27.7931 43.8836C27.8316 43.8964 27.8573 43.9091 27.8958 43.9091C27.9343 43.9091 27.9729 43.8964 27.9986 43.8836C28.0371 43.8709 28.0628 43.8455 28.0884 43.8327C28.1141 43.8073 28.127 43.7818 28.1527 43.7436C28.1655 43.7055 28.1783 43.68 28.1783 43.6418C28.1783 43.6036 28.1655 43.5655 28.1527 43.54C28.1398 43.5018 28.1141 43.4764 28.0884 43.4509C28.0628 43.4255 28.0371 43.4127 27.9986 43.3873C27.96 43.3745 27.9343 43.3618 27.8958 43.3618C27.8573 43.3618 27.8188 43.3745 27.7931 43.3873C27.7545 43.4 27.7289 43.4255 27.7032 43.4509C27.6775 43.4764 27.6647 43.5018 27.639 43.54C27.6261 43.5782 27.6133 43.6036 27.6133 43.6418C27.6133 43.68 27.6261 43.7182 27.639 43.7436C27.6518 43.7818 27.6775 43.8073 27.7032 43.8327Z" fill="#8195A6"/>
<path d="M40.5704 43.8327C40.596 43.8582 40.6217 43.8709 40.6603 43.8836C40.6988 43.8964 40.7245 43.9091 40.763 43.9091C40.8401 43.9091 40.9043 43.8836 40.9556 43.8327C41.007 43.7818 41.0327 43.7182 41.0327 43.6418C41.0327 43.6036 41.0198 43.5655 41.007 43.54C40.9942 43.5018 40.9685 43.4764 40.9556 43.4509C40.9299 43.4255 40.9043 43.4127 40.8657 43.3873C40.8272 43.3745 40.8015 43.3618 40.763 43.3618C40.7245 43.3618 40.6859 43.3745 40.6603 43.3873C40.6217 43.4 40.596 43.4255 40.5704 43.4509C40.5447 43.4764 40.5318 43.5018 40.5062 43.54C40.4933 43.5782 40.4805 43.6036 40.4805 43.6418C40.4805 43.68 40.4933 43.7182 40.5062 43.7436C40.519 43.7818 40.5447 43.8073 40.5704 43.8327Z" fill="#8195A6"/>
<path d="M39.9806 43.9091C40.0191 43.9091 40.0577 43.8964 40.0834 43.8836C40.1219 43.8709 40.1476 43.8455 40.1733 43.8327C40.1989 43.8073 40.2118 43.7818 40.2375 43.7436C40.2503 43.7055 40.2632 43.68 40.2632 43.6418C40.2632 43.6036 40.2503 43.5655 40.2375 43.54C40.2246 43.5018 40.1989 43.4764 40.1733 43.4509C40.1476 43.4255 40.1219 43.4127 40.0834 43.3873C40.0448 43.3745 40.0191 43.3618 39.9806 43.3618C39.9421 43.3618 39.9036 43.3745 39.8779 43.3873C39.8394 43.4 39.8137 43.4255 39.788 43.4509C39.7623 43.4764 39.7495 43.5018 39.7366 43.54C39.7238 43.5782 39.7109 43.6036 39.7109 43.6418C39.7109 43.7182 39.7366 43.7818 39.788 43.8327C39.8394 43.8836 39.9036 43.9091 39.9806 43.9091Z" fill="#8195A6"/>
<path d="M48.7658 43.9091C48.8043 43.9091 48.8428 43.8964 48.8685 43.8836C48.907 43.8709 48.9327 43.8455 48.9584 43.8327C48.9841 43.8073 48.9969 43.7818 49.0226 43.7436C49.0355 43.7055 49.0483 43.68 49.0483 43.6418C49.0483 43.6036 49.0355 43.5655 49.0226 43.54C49.0098 43.5018 48.9841 43.4764 48.9584 43.4509C48.9327 43.4255 48.907 43.4127 48.8685 43.3873C48.83 43.3745 48.8043 43.3618 48.7658 43.3618C48.7273 43.3618 48.6887 43.3745 48.663 43.3873C48.6245 43.4 48.5988 43.4255 48.5731 43.4509C48.5475 43.4764 48.5346 43.5018 48.5218 43.54C48.5089 43.5782 48.4961 43.6036 48.4961 43.6418C48.4961 43.7182 48.5218 43.7818 48.5731 43.8327C48.6245 43.8836 48.6887 43.9091 48.7658 43.9091Z" fill="#8195A6"/>
<path d="M49.3555 43.8327C49.3812 43.8582 49.4069 43.8709 49.4454 43.8836C49.4839 43.8964 49.5096 43.9091 49.5482 43.9091C49.6252 43.9091 49.6894 43.8836 49.7408 43.8327C49.7922 43.7818 49.8178 43.7182 49.8178 43.6418C49.8178 43.6036 49.805 43.5655 49.7922 43.54C49.7793 43.5018 49.7536 43.4764 49.7408 43.4509C49.7151 43.4255 49.6894 43.4127 49.6509 43.3873C49.6124 43.3745 49.5867 43.3618 49.5482 43.3618C49.5096 43.3618 49.4711 43.3745 49.4454 43.3873C49.4069 43.4 49.3812 43.4255 49.3555 43.4509C49.3298 43.4764 49.317 43.5018 49.2913 43.54C49.2785 43.5782 49.2656 43.6036 49.2656 43.6418C49.2656 43.68 49.2785 43.7182 49.2913 43.7436C49.317 43.7818 49.3298 43.8073 49.3555 43.8327Z" fill="#8195A6"/>
<path d="M48.6247 47.0654H48.9586C49.0742 47.0654 49.1898 47.04 49.2925 47.0018C49.3953 46.9509 49.4851 46.9 49.5622 46.8236C49.6393 46.7472 49.7035 46.6582 49.742 46.5563C49.7934 46.4545 49.8062 46.34 49.8062 46.2254V44.4182H49.2797V46.2254C49.2797 46.2763 49.2668 46.3145 49.254 46.3527C49.2411 46.3909 49.2155 46.4291 49.1769 46.4545C49.1513 46.48 49.1127 46.5054 49.0742 46.5309C49.0357 46.5436 48.9843 46.5563 48.9458 46.5563H48.6119H48.3807H47.6615H47.4304H47.135V44.4182H46.6085V46.5563H45.9278V44.4182H45.4013V46.5563H44.7335V44.4182H44.207V46.5563H43.4621H43.2309H42.5118H42.2806H41.5615H41.3303H41.0349V44.4182H40.5084V46.5563H39.8406H39.6094H38.8902H38.6591H38.3637V45.6527C38.3637 45.4109 38.3252 45.2072 38.261 45.0418C38.1968 44.8763 38.094 44.7618 37.9913 44.66C37.8757 44.5709 37.7473 44.5072 37.606 44.4691C37.4648 44.4309 37.3106 44.4182 37.1565 44.4182C37.0538 44.4182 36.9511 44.4309 36.8355 44.4436C36.7327 44.4563 36.63 44.4818 36.5273 44.5072C36.4245 44.5327 36.3346 44.5582 36.2576 44.5963C36.1805 44.6218 36.1163 44.6472 36.0649 44.6727L36.2833 45.1436C36.3218 45.1309 36.3732 45.1054 36.4374 45.08C36.5016 45.0545 36.5786 45.0291 36.6557 45.0163C36.7327 44.9909 36.8098 44.9782 36.8997 44.9654C36.9896 44.9527 37.0666 44.94 37.1565 44.94C37.2464 44.94 37.3235 44.9527 37.4134 44.9782C37.4904 45.0036 37.5675 45.0418 37.6317 45.0927C37.6959 45.1436 37.7473 45.22 37.7858 45.3091C37.8243 45.3982 37.85 45.5127 37.85 45.6654V46.5691H35.7953H35.5641H34.8064H34.5752H33.8561H33.6249H32.9057H32.6746H31.9554H31.7242H31.0051H30.7739H30.0547H29.7979H29.5025V45.64C29.5025 45.4745 29.4768 45.3218 29.4126 45.1691C29.3484 45.0291 29.2585 44.8891 29.1558 44.7872C29.0402 44.6727 28.9118 44.5836 28.7705 44.52C28.6293 44.4563 28.4623 44.4182 28.2954 44.4182C28.1284 44.4182 27.9743 44.4563 27.8202 44.52C27.6789 44.5836 27.5505 44.6727 27.4349 44.7872C27.3193 44.9018 27.2423 45.0291 27.1781 45.1818C27.1139 45.3345 27.0882 45.4872 27.0882 45.6654V46.2509C27.0882 46.3654 27.1139 46.48 27.1524 46.5818C27.2038 46.6836 27.2551 46.7727 27.3322 46.8491C27.4092 46.9254 27.4991 46.9891 27.6019 47.0272C27.7046 47.0654 27.8202 47.0909 27.9358 47.0909H28.9631C28.9503 47.1672 28.9118 47.2309 28.8733 47.2945C28.8347 47.3582 28.7834 47.4091 28.7191 47.46C28.6549 47.5109 28.5907 47.5363 28.5265 47.5618C28.4495 47.5872 28.3852 47.6 28.2954 47.6H27.3707C27.268 47.6 27.1781 47.5872 27.0882 47.5491C26.9983 47.5109 26.9212 47.46 26.857 47.3963C26.7928 47.3327 26.7414 47.2563 26.7029 47.1672C26.6644 47.0782 26.6515 46.9891 26.6515 46.8872V44.9145H26.125V46.8872C26.125 47.0527 26.1635 47.2182 26.2277 47.3709C26.292 47.5236 26.3818 47.6509 26.4974 47.7654C26.613 47.88 26.7414 47.9691 26.8955 48.0327C27.0496 48.0963 27.2038 48.1345 27.3835 48.1345H28.3082C28.4623 48.1345 28.6036 48.1091 28.732 48.0582C28.8733 48.0072 28.9888 47.9309 29.0916 47.8418C29.1943 47.7527 29.2842 47.6382 29.3613 47.5109C29.4255 47.3836 29.4768 47.2436 29.5025 47.1036H29.8236H30.0547H30.7739H31.0051H31.7242H31.9554H32.6746H32.9057H33.6249H33.8561H34.5752H34.8064H35.5256H35.7567H38.6334H38.8646H39.5837H39.8149H41.3046H41.5358H42.2549H42.4861H43.2053H43.4364H47.4047H47.6359H48.355H48.6247V47.0654ZM28.976 46.5563H27.9358C27.8844 46.5563 27.8459 46.5436 27.8073 46.5309C27.7688 46.5182 27.7303 46.4927 27.7046 46.4672C27.6789 46.4418 27.6532 46.4036 27.6404 46.3654C27.6275 46.3272 27.6147 46.2891 27.6147 46.2382V45.6527C27.6147 45.5509 27.6275 45.4618 27.6661 45.3727C27.7046 45.2836 27.756 45.2072 27.8073 45.1436C27.8716 45.08 27.9358 45.0291 28.0257 44.9909C28.1156 44.9527 28.1926 44.94 28.2954 44.94C28.3852 44.94 28.4751 44.9527 28.565 44.9909C28.6549 45.0291 28.7191 45.08 28.7834 45.1436C28.8476 45.2072 28.8989 45.2836 28.9375 45.36C28.976 45.4491 28.9888 45.5382 28.9888 45.6272V46.5563H28.976Z" fill="#8195A6"/>
<path d="M64.1494 47.0654H64.8686H65.0997H66.9362C67.0518 47.0654 67.1673 47.04 67.2701 47.0018C67.3728 46.9636 67.4627 46.9 67.5398 46.8236C67.6168 46.7473 67.681 46.6582 67.7196 46.5564C67.7709 46.4545 67.7838 46.34 67.7838 46.2V45.5764C67.7838 45.4109 67.7581 45.2582 67.6939 45.1182C67.6297 44.9782 67.5398 44.8509 67.437 44.7491C67.3343 44.6473 67.2059 44.5582 67.0518 44.4945C66.9105 44.4309 66.7564 44.4054 66.5894 44.4054C66.4225 44.4054 66.2684 44.4309 66.1271 44.4945C65.9859 44.5582 65.8574 44.6345 65.7419 44.7491C65.6391 44.8509 65.5492 44.9782 65.485 45.1309C65.4208 45.2709 65.3951 45.4364 65.3951 45.6018V46.5564H65.0869H64.8557H64.1366H63.9054H63.1862H62.9551H62.6597V45.6527C62.6597 45.4236 62.634 45.2327 62.5698 45.08C62.5056 44.9273 62.4285 44.8 62.3258 44.6982C62.2231 44.5964 62.1075 44.5327 61.9662 44.4818C61.825 44.4436 61.6837 44.4182 61.5296 44.4182C61.4268 44.4182 61.3113 44.4309 61.1957 44.4564C61.0801 44.4818 60.9774 44.5073 60.8618 44.5582C60.759 44.5964 60.6435 44.6473 60.5536 44.6982C60.4508 44.7491 60.3609 44.8127 60.271 44.8891V43.4H59.7445V46.5691H59.4363H59.2051H58.486H58.2548H57.5356H57.3045H56.5853H56.3541H55.635H55.4038H54.6846H54.4535H53.7343H53.5031H53.2078V44.4182H52.6555V46.8236C52.6555 46.9254 52.6299 47.0273 52.5785 47.1164C52.5528 47.1545 52.5271 47.2054 52.5014 47.2436C52.4629 47.2945 52.4244 47.3327 52.373 47.3836C52.3216 47.4345 52.2574 47.4727 52.1932 47.5236C52.129 47.5618 52.0391 47.6127 51.9492 47.6509L52.1547 48.1345C52.3345 48.0582 52.4886 47.9818 52.6042 47.88C52.7198 47.7909 52.8225 47.6891 52.8995 47.6C52.9766 47.4982 53.028 47.4091 53.0665 47.32C53.105 47.2309 53.1307 47.1418 53.1436 47.0782H53.4775H53.7086H54.4278H54.6589H55.3781H55.6093H56.3284H56.5596H57.2788H57.5099H58.2291H58.4603H59.1794H59.4106H62.9294H63.1605H63.8797H64.1494V47.0654ZM65.9345 45.6018C65.9345 45.5127 65.9473 45.4236 65.9859 45.3345C66.0244 45.2582 66.0629 45.1818 66.1271 45.1182C66.1913 45.0545 66.2555 45.0164 66.3454 44.9782C66.4225 44.94 66.5124 44.9273 66.6023 44.9273C66.6922 44.9273 66.7821 44.94 66.872 44.9782C66.949 45.0164 67.0261 45.0545 67.0903 45.1182C67.1545 45.1818 67.2059 45.2454 67.2316 45.3218C67.2701 45.3982 67.2829 45.4873 67.2829 45.5764V46.2C67.2829 46.2509 67.2701 46.3018 67.2572 46.34C67.2444 46.3782 67.2187 46.4164 67.1802 46.4418C67.1545 46.4673 67.116 46.4927 67.0775 46.5054C67.0389 46.5182 66.9876 46.5309 66.949 46.5309H65.9473V45.6018H65.9345ZM62.1332 46.5564H60.271V45.7418C60.271 45.6782 60.2839 45.6145 60.3224 45.5382C60.3609 45.4745 60.4123 45.4109 60.4637 45.3473C60.5279 45.2836 60.5921 45.2327 60.682 45.1818C60.759 45.1309 60.8489 45.08 60.9388 45.0418C61.0287 45.0036 61.1315 44.9782 61.2214 44.9527C61.3241 44.9273 61.414 44.9145 61.5039 44.9145C61.5809 44.9145 61.6708 44.9273 61.7351 44.9527C61.8121 44.9782 61.8763 45.0164 61.9277 45.08C61.9791 45.1436 62.0304 45.2073 62.0561 45.2964C62.0946 45.3854 62.1075 45.5 62.1075 45.6273V46.5564H62.1332Z" fill="#8195A6"/>
<path d="M66.0391 43.8327C66.0648 43.8582 66.0905 43.8709 66.129 43.8836C66.1675 43.8964 66.1932 43.9091 66.2318 43.9091C66.2703 43.9091 66.3088 43.8964 66.3345 43.8836C66.373 43.8709 66.3987 43.8455 66.4244 43.8327C66.4501 43.8073 66.4629 43.7818 66.4886 43.7436C66.5014 43.7055 66.5143 43.68 66.5143 43.6418C66.5143 43.6036 66.5014 43.5655 66.4886 43.54C66.4758 43.5018 66.4501 43.4764 66.4244 43.4509C66.3987 43.4255 66.373 43.4127 66.3345 43.3873C66.296 43.3745 66.2703 43.3618 66.2318 43.3618C66.1932 43.3618 66.1547 43.3745 66.129 43.3873C66.0905 43.4 66.0648 43.4255 66.0391 43.4509C66.0134 43.4764 66.0006 43.5018 65.9749 43.54C65.9621 43.5782 65.9492 43.6036 65.9492 43.6418C65.9492 43.68 65.9621 43.7182 65.9749 43.7436C65.9877 43.7818 66.0134 43.8073 66.0391 43.8327Z" fill="#8195A6"/>
<path d="M66.8086 43.8327C66.8343 43.8582 66.86 43.8709 66.8985 43.8836C66.9371 43.8964 66.9628 43.9091 67.0013 43.9091C67.0783 43.9091 67.1425 43.8836 67.1939 43.8327C67.2453 43.7818 67.271 43.7182 67.271 43.6418C67.271 43.6036 67.2581 43.5655 67.2453 43.54C67.2324 43.5018 67.2068 43.4764 67.1939 43.4509C67.1682 43.4255 67.1425 43.4127 67.104 43.3873C67.0655 43.3745 67.0398 43.3618 67.0013 43.3618C66.9628 43.3618 66.9242 43.3745 66.8985 43.3873C66.86 43.4 66.8343 43.4255 66.8086 43.4509C66.783 43.4764 66.7701 43.5018 66.7444 43.54C66.7316 43.5782 66.7188 43.6036 66.7188 43.6418C66.7188 43.68 66.7316 43.7182 66.7444 43.7436C66.7701 43.7818 66.783 43.8073 66.8086 43.8327Z" fill="#8195A6"/>
<path d="M4.04645 53.5436C4.04645 52.92 3.86666 52.3982 3.50707 51.9909C3.13465 51.5709 2.64664 51.3673 2.01737 51.3673C1.76052 51.3673 1.50367 51.4055 1.25967 51.4946C0.989981 51.5964 0.75882 51.7491 0.553343 51.9655C0.180916 52.3727 -0.0117188 52.8946 -0.0117188 53.5436C-0.0117188 54.1927 0.168074 54.7146 0.527658 55.1091C0.900085 55.5291 1.40093 55.7327 2.00452 55.7327C2.40263 55.7327 2.73653 55.6436 3.03191 55.4782L3.67402 55.9873L3.95655 55.6436L3.40433 55.1982C3.5456 55.0709 3.66118 54.9055 3.76392 54.7146C3.95655 54.3836 4.04645 53.9891 4.04645 53.5436ZM3.28875 54.4727C3.22454 54.6127 3.1218 54.7527 2.99338 54.8927L2.44116 54.4346L2.14579 54.7782L2.60811 55.1473C2.41548 55.2236 2.22284 55.2618 2.03021 55.2618C1.83757 55.2618 1.65778 55.2236 1.49083 55.16C1.24683 55.0582 1.04135 54.9055 0.887243 54.7018C0.668923 54.4091 0.566185 54.0146 0.566185 53.5309C0.566185 53.0218 0.694608 52.6146 0.951454 52.3091C1.22114 51.9909 1.58073 51.8255 2.01737 51.8255C2.46685 51.8255 2.81359 51.9782 3.08328 52.2964C3.35297 52.6146 3.48139 53.0218 3.48139 53.5309C3.48139 53.8873 3.41718 54.1927 3.28875 54.4727Z" fill="#8195A6"/>
<path d="M7.1544 55.0836V53.5691C7.1544 53.3655 7.1544 53.2509 7.14156 53.2127C7.11587 53.0473 7.05166 52.9073 6.94892 52.8182C6.74344 52.6145 6.42239 52.5127 5.99859 52.5127C5.57479 52.5127 5.26658 52.6145 5.04826 52.8055C4.84278 52.9964 4.7272 53.2382 4.7272 53.5564H5.21521C5.24089 53.3782 5.27942 53.2382 5.35648 53.1491C5.4849 53.0091 5.69038 52.9327 5.97291 52.9327C6.43523 52.9327 6.65355 53.1109 6.65355 53.4673C6.65355 53.5564 6.62786 53.6327 6.58934 53.6964C6.52513 53.7855 6.37102 53.8364 6.11417 53.8745C5.79311 53.9127 5.62616 53.9382 5.60048 53.9382C5.42069 53.9636 5.27942 54.0018 5.16384 54.0527C4.77857 54.2055 4.58594 54.4855 4.58594 54.88C4.58594 55.16 4.68868 55.3764 4.88131 55.5418C5.04826 55.6818 5.27942 55.7455 5.56195 55.7455C6.01143 55.7455 6.38386 55.58 6.66639 55.2491C6.66639 55.3636 6.69208 55.4655 6.74344 55.5418C6.8205 55.6564 6.93608 55.7073 7.10303 55.7073C7.21861 55.7073 7.33419 55.6818 7.46261 55.6436V55.2364C7.41124 55.2618 7.37272 55.2745 7.32135 55.2745C7.21861 55.2745 7.1544 55.2109 7.1544 55.0836ZM6.65355 54.5236C6.65355 54.6382 6.64071 54.7145 6.62786 54.7655C6.60218 54.88 6.51228 54.9945 6.37102 55.1091C6.17838 55.2491 5.96006 55.3255 5.70322 55.3255C5.51058 55.3255 5.35648 55.2873 5.26658 55.1982C5.151 55.1091 5.09963 54.9818 5.09963 54.8418C5.09963 54.6509 5.18953 54.5236 5.35648 54.4345C5.47206 54.3836 5.67753 54.3327 5.97291 54.2945C6.17838 54.2691 6.31965 54.2564 6.3967 54.2309C6.49944 54.2055 6.57649 54.1673 6.65355 54.1291V54.5236Z" fill="#8195A6"/>
<path d="M8.77235 51.7109H8.2715V52.6145H7.75781V53.0218H8.2715V54.5364C8.2715 54.8673 8.2715 55.0709 8.28435 55.16C8.29719 55.3 8.32287 55.4018 8.3614 55.4655C8.46414 55.6182 8.66962 55.7073 8.99067 55.7073C9.1191 55.7073 9.24752 55.6945 9.37594 55.6818V55.2364C9.28605 55.2618 9.19615 55.2745 9.10625 55.2745C8.95215 55.2745 8.84941 55.2364 8.81088 55.1727C8.7852 55.1218 8.77235 55.0073 8.77235 54.8164V53.0218H9.37594V52.6145H8.77235V51.7109Z" fill="#8195A6"/>
<path d="M12.4836 55.0836V53.5691C12.4836 53.3655 12.4836 53.2509 12.4708 53.2127C12.4451 53.0473 12.3809 52.9073 12.2782 52.8182C12.0727 52.6145 11.7516 52.5127 11.3278 52.5127C10.904 52.5127 10.5958 52.6145 10.3775 52.8055C10.172 52.9964 10.0565 53.2382 10.0565 53.5564H10.5316C10.5573 53.3782 10.5958 53.2382 10.6729 53.1491C10.8013 53.0091 11.0068 52.9327 11.2893 52.9327C11.7516 52.9327 11.97 53.1109 11.97 53.4673C11.97 53.5564 11.9443 53.6327 11.9057 53.6964C11.8415 53.7855 11.6874 53.8364 11.4306 53.8745C11.1095 53.9127 10.9426 53.9382 10.9169 53.9382C10.7371 53.9636 10.5958 54.0018 10.4802 54.0527C10.095 54.2055 9.90234 54.4855 9.90234 54.88C9.90234 55.16 10.0051 55.3764 10.1977 55.5418C10.3647 55.6818 10.5958 55.7455 10.8784 55.7455C11.3278 55.7455 11.7003 55.58 11.9828 55.2491C11.9828 55.3636 12.0085 55.4655 12.0599 55.5418C12.1369 55.6564 12.2525 55.7073 12.4194 55.7073C12.535 55.7073 12.6506 55.6818 12.779 55.6436V55.2364C12.7277 55.2618 12.6891 55.2745 12.6378 55.2745C12.5479 55.2745 12.4836 55.2109 12.4836 55.0836ZM11.9828 54.5236C11.9828 54.6382 11.97 54.7145 11.9571 54.7655C11.9314 54.88 11.8415 54.9945 11.7003 55.1091C11.5076 55.2491 11.2893 55.3255 11.0325 55.3255C10.8398 55.3255 10.6857 55.2873 10.5958 55.1982C10.4802 55.1091 10.4289 54.9818 10.4289 54.8418C10.4289 54.6509 10.5188 54.5236 10.6857 54.4345C10.8013 54.3836 11.0068 54.3327 11.3022 54.2945C11.5076 54.2691 11.6489 54.2564 11.726 54.2309C11.8287 54.2055 11.9057 54.1673 11.9828 54.1291V54.5236Z" fill="#8195A6"/>
<path d="M14.0131 53.2382V52.6018H13.5508V55.6436H14.0516V54.46C14.0516 54.2182 14.0645 54.04 14.0773 53.9127C14.1158 53.6455 14.1929 53.4418 14.347 53.2891C14.5268 53.1109 14.7451 53.0218 15.0148 53.0218C15.0405 53.0218 15.1047 53.0218 15.1689 53.0345V52.5127C14.9634 52.5127 14.7836 52.5382 14.6424 52.6018C14.3727 52.7036 14.1672 52.92 14.0131 53.2382Z" fill="#8195A6"/>
<path d="M19.2396 51.5582C19.0342 51.4945 18.7645 51.4564 18.4177 51.4564H16.9023V55.6436H18.4819C18.7131 55.6436 18.8929 55.6309 19.0213 55.6055C19.3039 55.5418 19.5607 55.4018 19.7919 55.1855C20.19 54.7909 20.3826 54.2182 20.3826 53.4673C20.3826 52.8436 20.2157 52.36 19.8946 52.0036C19.6891 51.7873 19.4836 51.6473 19.2396 51.5582ZM19.6634 54.4218C19.5222 54.7655 19.3039 54.9945 19.0213 55.0836C18.8801 55.1345 18.6617 55.16 18.3664 55.16H17.4546V51.94H18.4306C18.5975 51.94 18.7516 51.9527 18.8929 51.9909C19.0855 52.0291 19.2525 52.1309 19.4066 52.2836C19.6763 52.5509 19.8175 52.9582 19.8175 53.4927C19.8047 53.8745 19.7533 54.18 19.6634 54.4218Z" fill="#8195A6"/>
<path d="M23.8476 53.7855C23.7834 53.3782 23.6293 53.06 23.3596 52.8309C23.1156 52.6273 22.8202 52.5255 22.4735 52.5255C22.0497 52.5255 21.703 52.6782 21.4333 52.9836C21.1636 53.2891 21.0352 53.6709 21.0352 54.1545C21.0352 54.5873 21.1379 54.9564 21.3562 55.2364C21.6131 55.5673 21.9855 55.7327 22.4863 55.7327C23.2183 55.7327 23.6678 55.3764 23.8219 54.6764H23.3211C23.2826 54.8036 23.2312 54.9182 23.1798 54.9945C23.0386 55.2109 22.8202 55.3127 22.512 55.3127C21.8956 55.3127 21.5745 54.9564 21.5488 54.2309H23.8476C23.8733 54.0527 23.8605 53.9127 23.8476 53.7855ZM21.5745 53.8491C21.6002 53.62 21.6644 53.4291 21.7672 53.2891C21.9213 53.06 22.1653 52.9455 22.4735 52.9455C22.7946 52.9455 23.0386 53.0727 23.2055 53.3273C23.2954 53.4673 23.3468 53.6327 23.3596 53.8491H21.5745Z" fill="#8195A6"/>
<path d="M26.7011 54.1673C26.5342 54.04 26.226 53.9382 25.8022 53.8364C25.6095 53.7982 25.4426 53.7473 25.327 53.7091C25.2243 53.6709 25.1344 53.6327 25.0701 53.5691C25.0188 53.5182 24.9931 53.4418 24.9931 53.3527C24.9931 53.2127 25.0573 53.1109 25.1729 53.0345C25.2885 52.9709 25.4297 52.9327 25.6224 52.9327C25.9306 52.9327 26.1361 53.0091 26.2516 53.1745C26.303 53.2509 26.3415 53.3527 26.3544 53.4927H26.8552C26.8295 53.2382 26.7653 53.0345 26.6369 52.8945C26.4186 52.6527 26.0847 52.5255 25.6224 52.5255C25.327 52.5255 25.083 52.5764 24.8904 52.6909C24.6078 52.8564 24.4666 53.0982 24.4666 53.4164C24.4666 53.7727 24.6592 54.0018 25.0445 54.1418C25.1087 54.1673 25.327 54.2182 25.6994 54.3073C25.8278 54.3327 25.9563 54.3709 26.059 54.4091C26.1746 54.4473 26.2773 54.4982 26.3544 54.5618C26.4314 54.6255 26.47 54.7145 26.47 54.8291C26.47 54.9436 26.4314 55.0327 26.3544 55.1218C26.226 55.2618 26.0076 55.3382 25.7251 55.3382C25.404 55.3382 25.1857 55.2618 25.0445 55.0964C24.9674 55.0073 24.9289 54.88 24.9032 54.7145H24.4023C24.4152 54.9945 24.5051 55.2236 24.6592 55.4018C24.8904 55.6436 25.2371 55.7709 25.7123 55.7709C26.1874 55.7709 26.5342 55.6436 26.7525 55.3891C26.9066 55.2236 26.9836 55.02 26.9836 54.7909C26.9836 54.4982 26.8937 54.3073 26.7011 54.1673Z" fill="#8195A6"/>
<path d="M30.4101 53.7855C30.3459 53.3782 30.1918 53.06 29.9221 52.8309C29.6781 52.6273 29.3827 52.5255 29.036 52.5255C28.6122 52.5255 28.2655 52.6782 27.9958 52.9836C27.7261 53.2891 27.5977 53.6709 27.5977 54.1545C27.5977 54.5873 27.7004 54.9564 27.9187 55.2364C28.1756 55.5673 28.548 55.7327 29.0488 55.7327C29.7808 55.7327 30.2303 55.3764 30.3844 54.6764H29.8836C29.8451 54.8036 29.7937 54.9182 29.7423 54.9945C29.6011 55.2109 29.3827 55.3127 29.0745 55.3127C28.4581 55.3127 28.137 54.9564 28.1113 54.2309H30.4358C30.4358 54.0527 30.4358 53.9127 30.4101 53.7855ZM28.1499 53.8491C28.1756 53.62 28.2398 53.4291 28.3425 53.2891C28.4966 53.06 28.7406 52.9455 29.0488 52.9455C29.3699 52.9455 29.6139 53.0727 29.7808 53.3273C29.8707 53.4673 29.9221 53.6327 29.935 53.8491H28.1499Z" fill="#8195A6"/>
<path d="M31.7475 53.2382V52.6018H31.2852V55.6436H31.786V54.46C31.786 54.2182 31.7988 54.04 31.8117 53.9127C31.8374 53.6455 31.9273 53.4418 32.0814 53.2891C32.2612 53.1109 32.4795 53.0218 32.7492 53.0218C32.7749 53.0218 32.8391 53.0218 32.9033 53.0345V52.5127C32.6978 52.5127 32.518 52.5382 32.3768 52.6018C32.1071 52.7036 31.9016 52.92 31.7475 53.2382Z" fill="#8195A6"/>
<path d="M34.8169 54.1164C34.6628 54.5746 34.5472 54.9182 34.4958 55.1473C34.3931 54.7909 34.2903 54.46 34.1748 54.1546L33.6225 52.6146H33.0703L34.2133 55.6564H34.7527L35.8699 52.6146H35.3434L34.8169 54.1164Z" fill="#8195A6"/>
<path d="M39.0664 53.7855C39.0022 53.3782 38.8481 53.06 38.5784 52.8309C38.3344 52.6273 38.039 52.5255 37.6922 52.5255C37.2684 52.5255 36.9217 52.6782 36.652 52.9836C36.3823 53.2891 36.2539 53.6709 36.2539 54.1545C36.2539 54.5873 36.3566 54.9564 36.575 55.2364C36.8318 55.5673 37.2042 55.7327 37.7051 55.7327C38.4371 55.7327 38.8866 55.3764 39.0407 54.6764H38.5527C38.5142 54.8036 38.4628 54.9182 38.4114 54.9945C38.2702 55.2109 38.0518 55.3127 37.7436 55.3127C37.1272 55.3127 36.8061 54.9564 36.7804 54.2309H39.0792C39.0921 54.0527 39.0921 53.9127 39.0664 53.7855ZM36.7933 53.8491C36.819 53.62 36.8832 53.4291 36.9859 53.2891C37.14 53.06 37.3712 52.9455 37.6922 52.9455C38.0133 52.9455 38.2573 53.0727 38.4243 53.3273C38.5142 53.4673 38.5655 53.6327 38.5784 53.8491H36.7933Z" fill="#8195A6"/>
<path d="M41.9199 54.1673C41.7529 54.04 41.4447 53.9382 41.0209 53.8364C40.8283 53.7982 40.6613 53.7473 40.5457 53.7091C40.443 53.6709 40.3531 53.6327 40.2889 53.5691C40.2375 53.5182 40.2118 53.4418 40.2118 53.3527C40.2118 53.2127 40.2761 53.1109 40.3916 53.0345C40.5072 52.9709 40.6485 52.9327 40.8411 52.9327C41.1493 52.9327 41.3548 53.0091 41.4704 53.1745C41.5218 53.2509 41.5603 53.3527 41.5731 53.4927H42.074C42.0483 53.2382 41.9841 53.0345 41.8557 52.8945C41.6373 52.6527 41.3034 52.5255 40.8411 52.5255C40.5457 52.5255 40.3017 52.5764 40.1091 52.6909C39.8266 52.8564 39.6853 53.0982 39.6853 53.4164C39.6853 53.7727 39.8779 54.0018 40.2632 54.1418C40.3274 54.1673 40.5457 54.2182 40.9182 54.3073C41.0466 54.3327 41.175 54.3709 41.2778 54.4091C41.3933 54.4473 41.4961 54.4982 41.5731 54.5618C41.6502 54.6255 41.6887 54.7145 41.6887 54.8291C41.6887 54.9436 41.6502 55.0327 41.5731 55.1218C41.4447 55.2618 41.2264 55.3382 40.9438 55.3382C40.6228 55.3382 40.4045 55.2618 40.2632 55.0964C40.1862 55.0073 40.1476 54.88 40.1219 54.7145H39.6211C39.6339 54.9945 39.7238 55.2236 39.8779 55.4018C40.1091 55.6436 40.4558 55.7709 40.931 55.7709C41.4062 55.7709 41.7529 55.6436 41.9712 55.3891C42.1253 55.2236 42.2024 55.02 42.2024 54.7909C42.2152 54.4982 42.1125 54.3073 41.9199 54.1673Z" fill="#8195A6"/>
<path d="M43.7695 51.94H45.195V55.6436H45.7472V51.94H47.1727V51.4564H43.7695V51.94Z" fill="#8195A6"/>
<path d="M49.3915 52.5127C48.9292 52.5127 48.5824 52.6909 48.3513 53.0345C48.3641 52.8309 48.3641 52.7036 48.3641 52.6782V51.4564H47.8633V55.6436H48.3641V54.2055C48.3641 53.9255 48.377 53.7345 48.3898 53.6327C48.4283 53.4418 48.5054 53.2891 48.6338 53.1618C48.8008 53.0091 49.0062 52.9327 49.2502 52.9327C49.5328 52.9327 49.7254 53.0091 49.841 53.1745C49.9052 53.2764 49.9437 53.4545 49.9437 53.7218V55.6309H50.4446V53.6582C50.4446 53.34 50.4061 53.1109 50.329 52.9582C50.1621 52.6655 49.841 52.5127 49.3915 52.5127Z" fill="#8195A6"/>
<path d="M54.082 53.7855C54.0178 53.3782 53.8637 53.06 53.594 52.8309C53.35 52.6273 53.0546 52.5255 52.7079 52.5255C52.2841 52.5255 51.9373 52.6782 51.6676 52.9836C51.398 53.2891 51.2695 53.6709 51.2695 54.1545C51.2695 54.5873 51.3723 54.9564 51.5906 55.2364C51.8474 55.5673 52.2199 55.7327 52.7207 55.7327C53.4527 55.7327 53.9022 55.3764 54.0563 54.6764H53.5683C53.5298 54.8036 53.4784 54.9182 53.427 54.9945C53.2858 55.2109 53.0675 55.3127 52.7592 55.3127C52.1428 55.3127 51.8217 54.9564 51.7961 54.2309H54.0948C54.1077 54.0527 54.0948 53.9127 54.082 53.7855ZM51.8089 53.8491C51.8346 53.62 51.8988 53.4291 52.0015 53.2891C52.1556 53.06 52.3868 52.9455 52.7079 52.9455C53.0289 52.9455 53.2729 53.0727 53.4399 53.3273C53.5298 53.4673 53.5811 53.6327 53.594 53.8491H51.8089Z" fill="#8195A6"/>
<path d="M58.9598 53.5564C58.8699 53.4927 58.7544 53.4418 58.6002 53.4036C58.7287 53.3527 58.8442 53.2891 58.9341 53.2C59.1268 53.0091 59.2295 52.78 59.2295 52.5127C59.2295 52.3345 59.191 52.1691 59.1011 52.0164C58.9984 51.8382 58.8571 51.6982 58.6645 51.5964C58.4718 51.5073 58.1764 51.4564 57.7655 51.4564H56.0703V55.6436H58.0352C58.215 55.6436 58.3819 55.6309 58.4975 55.6055C58.7415 55.5545 58.9341 55.44 59.1011 55.2618C59.3066 55.0455 59.4093 54.7655 59.4093 54.4218C59.4093 54.04 59.2552 53.7473 58.9598 53.5564ZM56.6225 51.94H57.6884C57.9838 51.94 58.1893 51.9527 58.292 51.9909C58.5489 52.08 58.6773 52.2836 58.6773 52.5891C58.6773 52.7164 58.6516 52.8182 58.6002 52.9073C58.5232 53.0473 58.4076 53.1491 58.2535 53.1873C58.1251 53.2255 57.9196 53.2382 57.6371 53.2382H56.6354V51.94H56.6225ZM58.5104 55.0582C58.3819 55.1218 58.1251 55.16 57.7398 55.16H56.6225V53.6836H57.6499C58.0352 53.6836 58.2792 53.7091 58.4076 53.7473C58.7158 53.8618 58.8571 54.0909 58.8571 54.4218C58.8442 54.74 58.7287 54.9436 58.5104 55.0582Z" fill="#8195A6"/>
<path d="M62.8632 53.7855C62.799 53.3782 62.6449 53.06 62.3752 52.8309C62.1312 52.6273 61.8359 52.5255 61.4891 52.5255C61.0653 52.5255 60.7186 52.6782 60.4489 52.9836C60.1792 53.2891 60.0508 53.6709 60.0508 54.1545C60.0508 54.5873 60.1535 54.9564 60.3718 55.2364C60.6287 55.5673 61.0011 55.7327 61.502 55.7327C62.234 55.7327 62.6835 55.3764 62.8376 54.6764H62.3367C62.2982 54.8036 62.2468 54.9182 62.1954 54.9945C62.0542 55.2109 61.8359 55.3127 61.5276 55.3127C60.9112 55.3127 60.5902 54.9564 60.5645 54.2309H62.8632C62.8889 54.0527 62.8761 53.9127 62.8632 53.7855ZM60.5902 53.8491C60.6158 53.62 60.6801 53.4291 60.7828 53.2891C60.9369 53.06 61.1681 52.9455 61.4891 52.9455C61.8102 52.9455 62.0542 53.0727 62.2211 53.3273C62.311 53.4673 62.3624 53.6327 62.3752 53.8491H60.5902Z" fill="#8195A6"/>
<path d="M65.7156 54.1673C65.5487 54.04 65.2405 53.9382 64.8167 53.8364C64.624 53.7982 64.4571 53.7473 64.3415 53.7091C64.2388 53.6709 64.1489 53.6327 64.0846 53.5691C64.0333 53.5182 64.0076 53.4418 64.0076 53.3527C64.0076 53.2127 64.0718 53.1109 64.1874 53.0345C64.303 52.9709 64.4442 52.9327 64.6369 52.9327C64.9451 52.9327 65.1506 53.0091 65.2661 53.1745C65.3175 53.2509 65.356 53.3527 65.3689 53.4927H65.8697C65.844 53.2382 65.7798 53.0345 65.6514 52.8945C65.4331 52.6527 65.0992 52.5255 64.6369 52.5255C64.3415 52.5255 64.0975 52.5764 63.9049 52.6909C63.6223 52.8564 63.4811 53.0982 63.4811 53.4164C63.4811 53.7727 63.6737 54.0018 64.059 54.1418C64.1232 54.1673 64.3415 54.2182 64.7139 54.3073C64.8423 54.3327 64.9708 54.3709 65.0735 54.4091C65.1891 54.4473 65.2918 54.4982 65.3689 54.5618C65.4459 54.6255 65.4845 54.7145 65.4845 54.8291C65.4845 54.9436 65.4459 55.0327 65.3689 55.1218C65.2405 55.2618 65.0221 55.3382 64.7396 55.3382C64.4185 55.3382 64.2002 55.2618 64.059 55.0964C63.9819 55.0073 63.9434 54.88 63.9177 54.7145H63.4297C63.4425 54.9945 63.5324 55.2236 63.6865 55.4018C63.9177 55.6436 64.2644 55.7709 64.7396 55.7709C65.2148 55.7709 65.5615 55.6436 65.7798 55.3891C65.9339 55.2236 66.011 55.02 66.011 54.7909C65.9981 54.4982 65.9083 54.3073 65.7156 54.1673Z" fill="#8195A6"/>
<path d="M68.0009 53.0218V52.6145H67.3973V51.7109H66.8965V52.6145H66.3828V53.0218H66.8965V54.5364C66.8965 54.8673 66.8965 55.0709 66.9093 55.16C66.9222 55.3 66.9479 55.4018 66.9864 55.4655C67.0891 55.6182 67.2946 55.7073 67.6157 55.7073C67.7441 55.7073 67.8725 55.6945 68.0009 55.6818V55.2364C67.911 55.2618 67.8212 55.2745 67.7313 55.2745C67.5771 55.2745 67.4744 55.2364 67.4359 55.1727C67.4102 55.1218 67.3845 55.0073 67.3845 54.8164V53.0218H68.0009Z" fill="#8195A6"/>
</g>
<defs>
<clipPath id="clip0_1237_13316">
<rect width="68" height="56" fill="white"/>
</clipPath>
</defs>
</svg>
