<svg width="148" height="44" viewBox="0 0 148 44" fill="none" xmlns="http://www.w3.org/2000/svg">
<g clip-path="url(#clip0_1237_13546)">
<mask id="mask0_1237_13546" style="mask-type:luminance" maskUnits="userSpaceOnUse" x="0" y="0" width="43" height="44">
<path d="M37.5699 9.49144C36.8456 8.7522 36.0308 8.05497 35.142 7.44174C33.1832 6.04727 31.0434 4.48479 28.5333 3.35073C21.7929 0.217375 13.604 -0.47986 8.14747 4.08997C4.13945 7.44174 2.263 11.9696 1.36592 17.1106C0.979113 19.2443 0.682831 21.378 0.641681 23.5117C0.600531 29.1316 1.75274 34.7851 5.76076 38.9265C7.55491 40.7578 10.7482 42.4967 13.2254 43.0175C21.3731 44.7144 31.7348 41.1442 36.8127 36.23C41.545 31.6181 44.2773 24.4778 42.2281 17.7743C41.331 14.6745 39.792 11.8016 37.5699 9.49144ZM7.93349 20.8572C12.7974 16.6738 19.8753 11.936 28.5333 10.0207C29.3892 16.1194 29.6855 24.6878 26.912 33.0966C21.2415 30.9545 13.8591 27.0399 7.93349 20.8572Z" fill="white"/>
</mask>
<g mask="url(#mask0_1237_13546)">
<path d="M1.53189 12.1039C1.53189 12.1039 -3.07693 37.9604 7.92662 43.8827C7.92662 43.8827 16.0744 49.4522 36.1639 35.7007C36.2133 35.6587 12.1157 31.7777 1.53189 12.1039Z" fill="#8195A6"/>
<path d="M1.74441 12.146C1.74441 12.146 -3.20184 37.616 7.88402 43.6643C7.88402 43.6643 16.7971 49.5446 36.969 35.4823C36.936 35.4403 12.2789 32.2566 1.74441 12.146Z" fill="#8195A6"/>
<mask id="mask1_1237_13546" style="mask-type:luminance" maskUnits="userSpaceOnUse" x="0" y="12" width="37" height="33">
<path d="M1.74441 12.146C1.74441 12.146 -3.20184 37.616 7.88402 43.6643C7.88402 43.6643 16.7971 49.5446 36.969 35.4823C36.936 35.4403 12.2789 32.2566 1.74441 12.146Z" fill="white"/>
</mask>
<g mask="url(#mask1_1237_13546)">
<path d="M-6.99746 2.6535C-6.99746 2.6535 -7.33489 3.30874 -7.89453 7.74416C-7.89453 7.74416 4.94432 35.8688 43.8395 42.7907L48.6129 39.9598C48.6211 39.9682 10.7054 33.9115 -6.99746 2.6535Z" fill="#8195A6"/>
</g>
<path d="M21.6211 43.3619C27.7196 41.791 34.3283 39.4893 39.579 35.8267C41.2003 34.6927 42.69 33.3906 43.8422 31.7357C44.9532 30.1649 45.8009 28.0312 45.9738 26.0739C46.2701 22.8061 45.6775 19.6727 43.9656 16.8922C41.6612 13.1456 38.8054 10.2727 35.4393 7.49213C34.1143 6.40007 32.7975 5.40042 31.3901 4.44278C30.6248 3.92195 29.8511 3.40112 29.0446 2.9223C28.6166 2.66189 26.7402 1.88065 26.5673 1.40182C26.6167 1.43543 34.6328 25.2926 21.6211 43.3619Z" fill="#8195A6"/>
<path d="M8.05744 20.7648C8.05744 20.7648 9.03681 21.7645 9.54707 22.2433C9.54707 22.2433 2.42809 26.5107 0.806775 28.6444L0.765625 28.2496C0.765625 28.2076 5.4156 22.5961 8.05744 20.7648ZM26.9125 33.0882C26.9125 33.0882 25.7191 32.307 25.0772 31.9962C25.0772 31.9962 22.5588 41.1358 21.2831 43.4879L21.6699 43.3115C21.6205 43.3619 25.464 37.9605 26.9125 33.0882Z" fill="#8195A6"/>
<path d="M37.8328 9.23101C37.8328 9.23101 19.1917 -8.14105 8.57498 -1.47952C8.57498 -1.47952 -0.807262 3.35072 0.723524 28.2076C0.764674 28.2076 15.8174 8.18936 37.8328 9.23101Z" fill="#8195A6"/>
<path d="M28.5312 10.0122C28.5312 10.0122 28.6629 11.2303 28.6629 11.8435C28.6629 11.8435 35.3622 9.36542 37.6584 9.44942L37.4032 9.18901C37.4032 9.18901 31.8973 9.0966 28.5312 10.0122Z" fill="#8195A6"/>
<path d="M37.8328 9.23101C37.8328 9.23101 19.1917 -8.14105 8.57498 -1.47952C8.57498 -1.47952 -0.807262 3.35072 0.723524 28.2076C0.764674 28.2076 15.8174 8.18936 37.8328 9.23101Z" fill="#8195A6"/>
<g opacity="0.6">
<path opacity="0.0163934" d="M4.22266 29.2996C8.27183 5.96325 20.8967 -0.261458 30.4518 11.6251C32.5011 19.5887 30.962 27.3003 29.1761 34.7011C26.5261 37.2632 6.9468 38.1789 4.22266 29.2996Z" fill="#8195A6"/>
<path opacity="0.0327869" d="M4.34375 29.1736C8.31063 6.19004 20.9355 -0.127078 30.4 11.6755C32.4493 19.5131 30.8692 27.2163 29.1244 34.533C26.5237 37.0952 7.03497 37.9604 4.34375 29.1736Z" fill="#8195A6"/>
<path opacity="0.0491803" d="M4.47656 29.0812C8.36114 6.40006 20.986 0.0409446 30.4094 11.7091C32.4175 19.4543 30.8374 27.1239 29.0844 34.3483C26.4837 36.8768 7.1184 37.7 4.47656 29.0812Z" fill="#8195A6"/>
<path opacity="0.0655738" d="M4.60156 28.9552C8.35446 6.57646 21.0205 0.175344 30.3616 11.7595C32.3203 19.3787 30.7484 27.0399 28.9954 34.1802C26.4852 36.7004 7.21048 37.4396 4.60156 28.9552Z" fill="#8195A6"/>
<path opacity="0.0819672" d="M4.77344 28.8628C8.44403 6.79487 21.1101 0.351756 30.3606 11.7931C32.3194 19.2779 30.698 26.9391 28.9944 34.0374C26.4843 36.482 7.29183 37.2212 4.77344 28.8628Z" fill="#8195A6"/>
<path opacity="0.0983607" d="M4.90625 28.7788C8.48632 7.0553 21.1112 0.519779 30.37 11.8855C32.2876 19.2443 30.6663 26.9055 28.9626 33.9114C26.4854 36.3056 7.37526 36.9608 4.90625 28.7788Z" fill="#8195A6"/>
<path opacity="0.1148" d="M5.02734 28.6444C8.48396 7.22331 21.15 0.654181 30.3182 11.8855C32.1947 19.1099 30.5734 26.7711 28.8698 33.693C26.483 36.0956 7.46343 36.7004 5.02734 28.6444Z" fill="#8195A6"/>
<path opacity="0.1311" d="M5.16016 28.5604C8.52624 7.45011 21.2005 0.830573 30.2782 11.9275C32.1135 19.0259 30.4922 26.6871 28.7886 33.5166C26.443 35.9191 7.54687 36.482 5.16016 28.5604Z" fill="#8195A6"/>
<path opacity="0.1475" d="M5.28125 28.426C8.52388 7.61811 21.2311 0.956576 30.2759 11.9695C32.1112 18.9335 30.4487 26.5947 28.7862 33.3906C26.4407 35.7007 7.62681 36.2215 5.28125 28.426Z" fill="#8195A6"/>
<path opacity="0.1639" d="M5.45703 28.342C8.61737 7.83653 21.3245 1.133 30.2788 12.0199C32.073 18.8999 30.4105 26.5191 28.7398 33.2226C26.4436 35.5243 7.72029 35.9611 5.45703 28.342Z" fill="#8195A6"/>
<path opacity="0.1803" d="M5.58594 28.2076C8.65574 8.05495 21.3629 1.25901 30.2349 12.0535C31.9797 18.7991 30.3172 26.4183 28.6547 33.0378C26.4408 35.3059 7.79982 35.7427 5.58594 28.2076Z" fill="#8195A6"/>
<path opacity="0.1967" d="M5.71094 28.1236C8.65729 8.27336 21.4056 1.43542 30.2364 12.104C31.9812 18.7235 30.2776 26.3427 28.6563 32.8698C26.4424 35.0875 7.88367 35.4823 5.71094 28.1236Z" fill="#8195A6"/>
<path opacity="0.2131" d="M5.84375 28.0395C8.69957 8.49175 21.4561 1.61181 30.1964 12.1963C31.9 18.6815 30.1964 26.2586 28.5751 32.7858C26.4024 34.9195 7.97533 35.2639 5.84375 28.0395Z" fill="#8195A6"/>
<path opacity="0.2295" d="M6.00781 27.9051C8.78133 8.65978 21.5297 1.73783 30.1877 12.188C31.8501 18.5471 30.1465 26.1159 28.5252 32.559C26.4018 34.7011 8.05709 35.0035 6.00781 27.9051Z" fill="#8195A6"/>
<path opacity="0.2459" d="M6.14062 27.8211C8.78247 8.92858 21.539 1.91423 30.197 12.2804C31.8595 18.5051 30.1147 26.0822 28.5346 32.433C26.403 34.5247 8.14875 34.7431 6.14062 27.8211Z" fill="#8195A6"/>
<path opacity="0.2623" d="M6.26953 27.6867C8.82907 9.09659 21.5774 2.04864 30.1531 12.272C31.7744 18.3707 30.0214 25.9394 28.4495 32.2145C26.4002 34.3063 8.22828 34.5247 6.26953 27.6867Z" fill="#8195A6"/>
<path opacity="0.2787" d="M6.39453 27.6027C8.82239 9.315 21.6201 2.26705 30.1053 12.3643C31.6854 18.3706 29.9324 25.9058 28.3605 32.1305C26.3524 34.1298 8.31213 34.2642 6.39453 27.6027Z" fill="#8195A6"/>
<path opacity="0.2951" d="M6.52734 27.5187C8.8729 9.54181 21.6706 2.44346 30.1146 12.4148C31.6948 18.295 29.9006 25.8218 28.3205 31.9625C26.3535 33.9114 8.40379 34.0038 6.52734 27.5187Z" fill="#8195A6"/>
<path opacity="0.3115" d="M6.69141 27.3843C8.95467 9.75184 21.7441 2.56948 30.1059 12.4064C31.6449 18.1523 29.8507 25.6874 28.3117 31.7357C26.353 33.7434 8.48555 33.7854 6.69141 27.3843Z" fill="#8195A6"/>
<path opacity="0.3279" d="M6.82031 27.3003C8.95189 9.97024 21.7907 2.74588 30.0619 12.4988C31.5598 18.1102 29.7657 25.6454 28.2349 31.6097C26.3502 33.525 8.56508 33.525 6.82031 27.3003Z" fill="#8195A6"/>
<path opacity="0.3443" d="M6.94531 27.1659C8.99459 10.1467 21.8335 2.87189 30.0635 12.4988C31.5531 17.9842 29.7261 25.5194 28.187 31.4333C26.3517 33.3486 8.65716 33.2646 6.94531 27.1659Z" fill="#8195A6"/>
<path opacity="0.3607" d="M7.07812 27.0819C9.03687 10.3651 21.8757 3.0483 30.0235 12.5828C31.472 17.9338 29.6367 25.469 28.147 31.2989C26.3117 33.1302 8.74059 33.0462 7.07812 27.0819Z" fill="#8195A6"/>
<path opacity="0.377" d="M7.21094 26.9895C9.04624 10.5751 21.9262 3.21632 29.9834 12.6248C31.3908 17.8498 29.5555 25.3766 28.0658 31.1309C26.3129 32.9118 8.83225 32.7858 7.21094 26.9895Z" fill="#8195A6"/>
<path opacity="0.3934" d="M7.375 26.8635C9.11977 10.8019 21.9586 3.3507 30.0241 12.6752C31.4314 17.7658 29.5549 25.301 28.0653 30.9629C26.3123 32.7354 8.91402 32.5674 7.375 26.8635Z" fill="#8195A6"/>
<path opacity="0.4098" d="M7.50391 26.7711C9.16637 11.0119 22.0052 3.52711 29.9801 12.7088C31.3463 17.7154 29.4699 25.2002 28.0214 30.8201C26.3095 32.5254 8.99354 32.3069 7.50391 26.7711Z" fill="#8195A6"/>
<path opacity="0.4262" d="M7.62891 26.6451C9.16792 11.1883 22.0479 3.66151 29.9323 12.7592C31.2573 17.6314 29.3809 25.1246 27.9242 30.6521C26.3111 32.3489 9.08562 32.0465 7.62891 26.6451Z" fill="#8195A6"/>
<path opacity="0.4426" d="M7.76172 26.5611C9.2102 11.4151 22.0902 3.83794 29.9417 12.8012C31.2173 17.5474 29.3409 25.0322 27.8924 30.4757C26.2711 32.1305 9.16905 31.8281 7.76172 26.5611Z" fill="#8195A6"/>
<path opacity="0.459" d="M7.88281 26.4267C9.20785 11.6251 22.129 3.96394 29.8899 12.8012C31.1656 17.413 29.248 24.9062 27.7995 30.2572C26.2687 31.9541 9.249 31.5677 7.88281 26.4267Z" fill="#8195A6"/>
<path opacity="0.4754" d="M8.05859 26.3426C9.2931 11.8435 22.2225 4.14034 29.8929 12.8936C31.1274 17.3794 29.2098 24.8642 27.8025 30.1732C26.2717 31.7357 9.34248 31.2989 8.05859 26.3426Z" fill="#8195A6"/>
<path opacity="0.4918" d="M8.1875 26.2503C9.33971 12.062 22.2609 4.30836 29.8983 12.9272C31.0917 17.2786 29.1741 24.7718 27.7668 29.9968C26.2689 31.5677 9.42201 31.0889 8.1875 26.2503Z" fill="#8195A6"/>
<path opacity="0.5082" d="M8.3125 26.1243C9.33302 12.2384 22.3036 4.44277 29.8505 12.9776C31.0439 17.203 29.0851 24.6878 27.6778 29.8288C26.2704 31.3493 9.50586 30.8201 8.3125 26.1243Z" fill="#8195A6"/>
<path opacity="0.5246" d="M8.44531 26.0318C9.38354 12.4904 22.3458 4.61077 29.8105 13.0112C30.9627 17.1442 29.0039 24.5954 27.6378 29.644C26.2304 31.1729 9.59752 30.5597 8.44531 26.0318Z" fill="#8195A6"/>
<path opacity="0.541" d="M8.56641 25.9058C9.42233 12.6752 22.3435 4.74517 29.8081 13.0616C30.9192 17.0686 28.9522 24.5114 27.5943 29.518C26.2281 30.9545 9.67746 30.3413 8.56641 25.9058Z" fill="#8195A6"/>
<path opacity="0.5574" d="M8.73828 25.8134C9.46252 12.8852 22.4331 4.91317 29.8072 13.1036C30.9182 16.9762 28.9101 24.419 27.5439 29.3416C26.2271 30.7781 9.76704 30.0808 8.73828 25.8134Z" fill="#8195A6"/>
<path opacity="0.5738" d="M8.87109 25.7294C9.50481 13.1036 22.4753 5.09799 29.7672 13.196C30.8371 16.9426 28.8289 24.3854 27.5039 29.2156C26.2282 30.5597 9.85047 29.8204 8.87109 25.7294Z" fill="#8195A6"/>
<path opacity="0.5902" d="M8.99609 25.6034C9.50636 13.28 22.518 5.23241 29.7687 13.196C30.7892 16.8082 28.7893 24.251 27.4643 28.9972C26.2298 30.3413 9.93432 29.602 8.99609 25.6034Z" fill="#8195A6"/>
<path opacity="0.6066" d="M9.125 25.511C9.55296 13.5404 22.5564 5.4004 29.7248 13.28C30.7453 16.7662 28.7043 24.1669 27.3792 28.9048C26.1859 30.1732 10.0221 29.3416 9.125 25.511Z" fill="#8195A6"/>
<path opacity="0.623" d="M9.25 25.385C9.58743 13.7168 22.5991 5.53483 29.6769 13.28C30.6563 16.6318 28.607 24.0326 27.2902 28.6948C26.1874 29.9548 10.1059 29.1232 9.25 25.385Z" fill="#8195A6"/>
<path opacity="0.6393" d="M9.42188 25.2926C9.63586 13.9268 22.6887 5.70282 29.7254 13.322C30.6636 16.5898 28.6143 23.9485 27.3387 28.5184C26.1865 29.7784 10.1873 28.8628 9.42188 25.2926Z" fill="#8195A6"/>
<path opacity="0.6557" d="M9.55469 25.1666C9.68637 14.1116 22.731 5.83722 29.6854 13.3724C30.6236 16.5058 28.5332 23.8645 27.2575 28.3504C26.1876 29.56 10.2789 28.6024 9.55469 25.1666Z" fill="#8195A6"/>
<path opacity="0.6721" d="M9.67969 25.0742C9.72084 14.3637 22.7737 6.00524 29.6375 13.406C30.5346 16.4134 28.4442 23.7637 27.1603 28.2075C26.1891 29.3836 10.3628 28.384 9.67969 25.0742Z" fill="#8195A6"/>
<path opacity="0.6885" d="M9.80898 24.9902C9.72668 14.5821 22.7713 6.18165 29.6434 13.4984C30.4993 16.3714 28.4089 23.7301 27.1661 28.0815C26.1456 29.1736 10.4427 28.1235 9.80898 24.9902Z" fill="#8195A6"/>
<path opacity="0.7049" d="M9.93139 24.8558C9.75856 14.7585 22.8114 6.30765 29.5929 13.49C30.4489 16.2285 28.3173 23.5873 27.0746 27.8547C26.1446 28.9972 10.5322 27.8631 9.93139 24.8558Z" fill="#8195A6"/>
<path opacity="0.7213" d="M10.1052 24.7718C9.85012 14.9769 22.903 6.48406 29.594 13.5824C30.4005 16.1949 28.2689 23.5537 27.0344 27.7287C26.1456 28.7788 10.6155 27.6447 10.1052 24.7718Z" fill="#8195A6"/>
<path opacity="0.7377" d="M10.2389 24.6458C9.85204 15.1533 22.946 6.61847 29.6041 13.5908C30.3695 16.0689 28.2379 23.4277 27.0446 27.5691C26.1475 28.6024 10.708 27.3843 10.2389 24.6458Z" fill="#8195A6"/>
<path opacity="0.7541" d="M10.3599 24.5534C9.89082 15.4137 22.9848 6.83687 29.5524 13.6748C30.2766 16.0689 28.145 23.3857 26.9517 27.4347C26.0958 28.3839 10.7879 27.1239 10.3599 24.5534Z" fill="#8195A6"/>
<path opacity="0.7705" d="M10.4926 24.4694C9.89178 15.6321 23.0351 7.01329 29.5122 13.7168C30.2364 15.9765 28.0637 23.2933 26.8703 27.2583C26.0967 28.2076 10.8712 26.9055 10.4926 24.4694Z" fill="#8195A6"/>
<path opacity="0.7869" d="M10.6155 24.335C9.9324 15.8085 23.0675 7.1393 29.5117 13.7168C30.1947 15.8505 28.022 23.1673 26.8287 27.0399C26.0962 27.9975 10.9611 26.6451 10.6155 24.335Z" fill="#8195A6"/>
<path opacity="0.8033" d="M10.7899 24.2509C10.0245 16.0269 23.1596 7.3157 29.5132 13.8008C30.1551 15.8001 27.933 23.1169 26.8302 26.9475C26.0977 27.7791 11.045 26.3846 10.7899 24.2509Z" fill="#8195A6"/>
<path opacity="0.8197" d="M10.9139 24.1165C10.0251 16.2369 23.2013 7.44171 29.5138 13.8008C30.1557 15.6741 27.8925 22.9825 26.7814 26.7291C26.0983 27.6027 11.1279 26.1662 10.9139 24.1165Z" fill="#8195A6"/>
<path opacity="0.8361" d="M11.0441 24.0325C10.0647 16.4554 23.1998 7.61812 29.4711 13.8848C30.0719 15.6237 27.8086 22.9405 26.6976 26.5947C26.0557 27.3843 11.2169 25.9058 11.0441 24.0325Z" fill="#8195A6"/>
<path opacity="0.8525" d="M11.1749 23.8981C10.105 16.6318 23.2401 7.75254 29.4291 13.8848C29.9805 15.4977 27.7255 22.8061 26.6556 26.3763C26.0548 27.2079 11.2983 25.6874 11.1749 23.8981Z" fill="#8195A6"/>
<path opacity="0.8689" d="M11.2986 23.8141C10.1052 16.8502 23.2815 7.92053 29.4294 13.9772C29.9808 15.4977 27.6846 22.7725 26.6147 26.3006C26.055 26.9895 11.3809 25.427 11.2986 23.8141Z" fill="#8195A6"/>
<path opacity="0.8852" d="M11.4731 23.7301C10.1975 17.1106 23.3738 8.10535 29.4311 14.0192C29.9413 15.4137 27.6369 22.6801 26.5752 26.1243C26.0567 26.8215 11.4731 25.1666 11.4731 23.7301Z" fill="#8195A6"/>
<path opacity="0.9016" d="M11.5963 23.5957C10.1889 17.287 23.4146 8.23134 29.3814 14.0612C29.8505 15.3213 27.5461 22.5961 26.5256 25.9478C26.0565 26.6031 11.5551 24.9482 11.5963 23.5957Z" fill="#8195A6"/>
<path opacity="0.918" d="M11.7256 23.5117C10.2359 17.5054 23.4534 8.40776 29.3872 14.1116C29.8563 15.2457 27.5108 22.5121 26.4903 25.7798C26.0129 26.4267 11.6433 24.6878 11.7256 23.5117Z" fill="#8195A6"/>
<path opacity="0.9344" d="M11.8488 23.3773C10.2687 17.6734 23.4943 8.53378 29.3377 14.1453C29.7656 15.1449 27.4201 22.4197 26.3913 25.637C26.0127 26.2083 11.7254 24.4274 11.8488 23.3773Z" fill="#8195A6"/>
<path opacity="0.9508" d="M11.9819 23.2933C10.2783 17.8918 23.5369 8.71018 29.2979 14.1957C29.6848 15.0693 27.3392 22.3357 26.3516 25.469C26.0142 26.0318 11.8091 24.209 11.9819 23.2933Z" fill="#8195A6"/>
<path opacity="0.9672" d="M12.1537 23.2093C10.3596 18.1522 23.6264 8.88657 29.338 14.2376C29.7248 14.9769 27.3299 22.2516 26.3505 25.2926C26.0131 25.8134 11.8986 23.9485 12.1537 23.2093Z" fill="#8195A6"/>
<path opacity="0.9836" d="M12.2784 23.0749C10.4019 18.3287 23.6276 9.01261 29.2981 14.2797C29.6355 14.9349 27.2488 22.1593 26.2694 25.1162C26.0143 25.6454 11.9821 23.6881 12.2784 23.0749Z" fill="#8195A6"/>
<path d="M12.4121 22.9909C10.404 18.5471 23.6708 9.18902 29.259 14.3301C29.5553 14.8509 27.1685 22.0753 26.1892 24.9986C25.9752 25.427 12.1158 23.4697 12.4121 22.9909Z" fill="#8195A6"/>
</g>
<path d="M37.8328 9.23101C37.8328 9.23101 19.1917 -8.14105 8.57498 -1.47952C8.57498 -1.47952 -0.807262 3.35072 0.723524 28.2076C0.764674 28.2076 15.8174 8.18936 37.8328 9.23101Z" fill="#8195A6"/>
<mask id="mask2_1237_13546" style="mask-type:luminance" maskUnits="userSpaceOnUse" x="0" y="-4" width="38" height="33">
<path d="M37.8328 9.23101C37.8328 9.23101 19.1917 -8.14105 8.57498 -1.47952C8.57498 -1.47952 -0.807262 3.35072 0.723524 28.2076C0.764674 28.2076 15.8174 8.18936 37.8328 9.23101Z" fill="white"/>
</mask>
<g mask="url(#mask2_1237_13546)">
<g opacity="0.8">
<path d="M36.2108 9.05459C36.8939 10.2727 25.2072 12.7592 18.08 16.8922C10.9528 21.0252 4.47575 26.2503 3.79266 25.0322C3.10957 23.8141 9.46316 16.7158 16.5904 12.5828C23.7093 8.49176 35.5277 7.83653 36.2108 9.05459Z" fill="#8195A6"/>
<path d="M35.9077 9.14699C36.5908 10.3651 25.077 12.8012 18.0815 16.8502C11.0859 20.8992 4.69121 26.0822 4.00812 24.8642C3.32502 23.6461 9.59631 16.6822 16.5918 12.6332C23.5874 8.58417 35.2246 7.97094 35.9077 9.14699Z" fill="#8195A6"/>
<path d="M35.609 9.27299C36.251 10.449 24.9429 12.8852 18.0791 16.8922C11.1658 20.8992 4.90277 25.9898 4.21968 24.7718C3.53659 23.5957 9.72557 16.7158 16.5894 12.7088C23.4944 8.66816 34.9259 8.05492 35.609 9.27299Z" fill="#8195A6"/>
<path d="M35.3126 9.3654C35.9546 10.5415 24.8605 12.9356 18.0789 16.8502C11.2974 20.7648 5.11663 25.7714 4.43353 24.5954C3.79159 23.4193 9.84889 16.6738 16.6304 12.7088C23.412 8.79417 34.6707 8.18934 35.3126 9.3654Z" fill="#8195A6"/>
<path d="M35.0181 9.4494C35.66 10.5835 24.7388 12.9356 18.0395 16.8082C11.3403 20.6808 5.28298 25.6034 4.64926 24.4274C4.00732 23.2513 9.94118 16.6318 16.6322 12.7592C23.3232 8.88658 34.3762 8.27335 35.0181 9.4494Z" fill="#8195A6"/>
<path d="M34.7112 9.53341C35.3532 10.6675 24.6047 12.9692 18.0372 16.7578C11.4696 20.5884 5.49459 25.4186 4.86087 24.2425C4.21893 23.1085 10.0623 16.5814 16.6792 12.7508C23.1974 8.97059 34.0775 8.39936 34.7112 9.53341Z" fill="#8195A6"/>
<path d="M34.4164 9.62583C35.0172 10.7599 24.4746 13.0196 18.0387 16.7662C11.5534 20.5128 5.66892 25.259 5.07635 24.167C4.43441 23.0329 10.1954 16.6318 16.6807 12.8936C23.1166 9.0546 33.8156 8.49178 34.4164 9.62583Z" fill="#8195A6"/>
<path d="M34.1185 9.70982C34.7193 10.8019 24.3495 13.0196 17.9959 16.7158C11.6423 20.412 5.84014 25.0742 5.23934 23.9821C4.63855 22.8901 10.2761 16.5814 16.6297 12.8768C23.0245 9.18899 33.5177 8.61777 34.1185 9.70982Z" fill="#8195A6"/>
<path d="M33.816 9.79383C34.4168 10.8859 24.2609 13.0616 17.9896 16.6738C11.7183 20.286 6.04782 24.8978 5.44703 23.8141C4.84624 22.7221 10.3933 16.5478 16.6646 12.8852C22.9029 9.273 33.2234 8.71017 33.816 9.79383Z" fill="#8195A6"/>
<path d="M33.5208 9.88623C34.1215 10.9279 24.1385 13.1036 17.9989 16.6318C11.8593 20.2019 6.2711 24.6878 5.67031 23.6377C5.06952 22.5961 10.5343 16.4554 16.6739 12.9272C22.8135 9.3654 32.9693 8.83617 33.5208 9.88623Z" fill="#8195A6"/>
<path d="M33.2242 9.97024C33.825 11.0119 24.0148 13.1036 17.9575 16.6318C11.9002 20.1179 6.44368 24.5534 5.84288 23.5117C5.24209 22.4701 10.6163 16.4554 16.6325 12.9776C22.7309 9.44941 32.6646 8.92858 33.2242 9.97024Z" fill="#8195A6"/>
<path d="M32.9699 10.0542C33.5213 11.0959 23.9251 13.1456 17.9994 16.5814C12.0738 20.0171 6.69136 24.377 6.0988 23.3353C5.54739 22.2937 10.7488 16.4134 16.7155 12.9776C22.6494 9.57542 32.3691 9.05459 32.9699 10.0542Z" fill="#8195A6"/>
<path d="M32.6633 10.1466C33.2147 11.1463 23.7913 13.196 17.9892 16.5478C12.1458 19.9415 6.90331 24.1669 6.30252 23.1673C5.75111 22.1676 10.8702 16.3798 16.7135 13.0196C22.5157 9.66782 32.0708 9.147 32.6633 10.1466Z" fill="#8195A6"/>
<path d="M32.3686 10.2307C32.92 11.2303 23.7106 13.1876 17.9496 16.5394C12.2379 19.8491 7.06945 24.0241 6.51804 23.0245C5.96663 22.0248 10.9952 16.363 16.7151 13.0532C22.4349 9.74343 31.8172 9.27301 32.3686 10.2307Z" fill="#8195A6"/>
<path d="M32.0695 10.323C32.6209 11.2807 23.5843 13.238 17.955 16.5058C12.3256 19.7735 7.24768 23.8561 6.73742 22.8565C6.18601 21.8988 11.1323 16.3293 16.7616 13.1036C22.3416 9.84422 31.5181 9.3654 32.0695 10.323Z" fill="#8195A6"/>
<path d="M31.7731 10.4071C32.2833 11.3647 23.4525 13.28 17.9548 16.4554C12.4572 19.6307 7.46152 23.6797 6.95126 22.7221C6.441 21.7644 11.2556 16.321 16.7615 13.1456C22.2591 9.92823 31.2134 9.44941 31.7731 10.4071Z" fill="#8195A6"/>
<path d="M31.4686 10.4911C31.9789 11.4067 23.3209 13.28 17.9055 16.4133C12.4901 19.5467 7.62618 23.4697 7.11592 22.5541C6.60566 21.6384 11.3379 16.2873 16.7121 13.154C22.1275 10.0542 30.9583 9.57541 31.4686 10.4911Z" fill="#8195A6"/>
<path d="M31.1741 10.6255C31.6844 11.5411 23.1992 13.364 17.9073 16.4554C12.6154 19.5467 7.84194 23.3773 7.33168 22.4617C6.82142 21.546 11.4302 16.3209 16.7551 13.28C22.047 10.1466 30.6638 9.66781 31.1741 10.6255Z" fill="#8195A6"/>
<path d="M30.879 10.7095C31.3892 11.6251 23.118 13.406 17.9167 16.4134C12.7153 19.4207 8.06531 23.2009 7.55505 22.2937C7.04478 21.378 11.5631 16.2874 16.7645 13.28C21.9658 10.2307 30.3687 9.79383 30.879 10.7095Z" fill="#8195A6"/>
<path d="M30.5829 10.8019C31.052 11.6755 22.9948 13.4144 17.9168 16.3713C12.8389 19.3283 8.27124 22.9909 7.76098 22.1172C7.29187 21.2436 11.6867 16.2369 16.7564 13.28C21.8755 10.323 30.1138 9.88622 30.5829 10.8019Z" fill="#8195A6"/>
<path d="M30.2785 10.8859C30.7476 11.7595 22.855 13.4564 17.8676 16.3294C12.8802 19.2023 8.44419 22.8145 7.9257 21.9492C7.45659 21.0756 11.7609 16.2034 16.7565 13.3304C21.7522 10.4575 29.8094 10.0122 30.2785 10.8859Z" fill="#8195A6"/>
<path d="M29.9798 10.9699C30.4489 11.7931 22.7291 13.4984 17.8652 16.321C13.0012 19.1435 8.60638 22.6801 8.13727 21.8064C7.66816 20.9832 11.8902 16.1865 16.7541 13.364C21.6592 10.5331 29.5107 10.1046 29.9798 10.9699Z" fill="#8195A6"/>
<path d="M29.6825 11.0623C30.1516 11.8855 22.6047 13.5404 17.8642 16.2874C13.0908 19.0259 8.81937 22.4701 8.39964 21.6384C7.93053 20.8152 12.0702 16.1529 16.8025 13.364C21.5759 10.6255 29.2546 10.2306 29.6825 11.0623Z" fill="#8195A6"/>
<path d="M29.4275 11.1463C29.8554 11.9275 22.5636 13.5404 17.8725 16.2369C13.2225 18.9335 9.04169 22.2852 8.61372 21.462C8.18576 20.6388 12.1526 16.1109 16.8438 13.406C21.4937 10.7095 28.9584 10.323 29.4275 11.1463Z" fill="#8195A6"/>
<path d="M29.1249 11.2303C29.5528 12.0115 22.4256 13.5824 17.8662 16.237C13.3067 18.8915 9.24934 22.1593 8.82137 21.378C8.39341 20.5968 12.278 16.153 16.8374 13.4984C21.3639 10.8439 28.6558 10.4491 29.1249 11.2303Z" fill="#8195A6"/>
<path d="M28.8283 11.3227C29.2563 12.1039 22.3019 13.6328 17.8659 16.1949C13.3888 18.7655 9.42191 21.9408 8.99395 21.1596C8.56599 20.3783 12.36 16.0689 16.8454 13.4984C21.2814 10.9279 28.4004 10.533 28.8283 11.3227Z" fill="#8195A6"/>
<path d="M28.5336 11.4067C28.9615 12.1459 22.18 13.6244 17.8263 16.1529C13.4726 18.6815 9.63742 21.7728 9.20946 21.0252C8.7815 20.2775 12.4932 16.0605 16.8469 13.5404C21.1924 11.0119 28.1056 10.6675 28.5336 11.4067Z" fill="#8195A6"/>
<path d="M28.235 11.4907C28.6218 12.23 22.0542 13.6664 17.824 16.1026C13.5608 18.5807 9.84906 21.588 9.4211 20.8488C8.99314 20.1096 12.6226 16.0185 16.8446 13.532C21.1078 11.1043 27.807 10.7515 28.235 11.4907Z" fill="#8195A6"/>
<path d="M27.9301 11.5831C28.3169 12.2803 21.9551 13.7168 17.8237 16.1109C13.6922 18.505 10.0627 21.42 9.63477 20.7228C9.24796 20.0255 12.7457 16.0185 16.8854 13.6244C20.9758 11.1883 27.5516 10.8859 27.9301 11.5831Z" fill="#8195A6"/>
<path d="M27.6336 11.6671C28.0204 12.3644 21.8314 13.7168 17.7822 16.0605C13.733 18.4043 10.1941 21.2436 9.80729 20.5464C9.42048 19.8491 12.8359 15.9765 16.844 13.6244C20.8932 11.3227 27.2467 10.9699 27.6336 11.6671Z" fill="#8195A6"/>
<path d="M27.3392 11.7595C27.726 12.4568 21.7099 13.7588 17.7841 16.0269C13.8584 18.2866 10.4018 21.0756 10.0232 20.3784C9.63641 19.6811 12.9202 15.9345 16.8459 13.6328C20.8128 11.4067 26.9524 11.1043 27.3392 11.7595Z" fill="#8195A6"/>
<path d="M27.0346 11.8435C27.4214 12.4988 21.5781 13.8008 17.7758 15.9765C13.9406 18.1942 10.6075 20.8488 10.27 20.2019C9.88322 19.5467 13.0847 15.8505 16.9199 13.6748C20.7222 11.4907 26.6972 11.1883 27.0346 11.8435Z" fill="#8195A6"/>
<path d="M26.7384 11.9275C27.0759 12.5828 21.4465 13.8008 17.743 15.9765C14.0313 18.1103 10.7886 20.7228 10.4512 20.0675C10.1138 19.4123 13.1836 15.8421 16.8953 13.7084C20.6071 11.5747 26.401 11.3227 26.7384 11.9275Z" fill="#8195A6"/>
<path d="M26.4398 12.062C26.7772 12.6752 21.3619 13.8932 17.7407 15.9765C14.1194 18.0599 11.0003 20.5884 10.6628 19.9835C10.3254 19.3703 13.3047 15.8925 16.893 13.8428C20.506 11.7091 26.0941 11.4067 26.4398 12.062Z" fill="#8195A6"/>
<path d="M26.1451 12.1459C26.4825 12.7592 21.24 13.9268 17.7422 15.9345C14.2444 17.9842 11.2158 20.4204 10.8784 19.8071C10.5409 19.1939 13.4379 15.8421 16.9357 13.8428C20.4252 11.8015 25.8406 11.5411 26.1451 12.1459Z" fill="#8195A6"/>
<path d="M25.8407 12.2383C26.1782 12.8012 21.1085 13.9352 17.693 15.9429C14.2775 17.9002 11.3806 20.2523 11.0431 19.6895C10.7057 19.1267 13.5204 15.8589 16.8865 13.9016C20.3431 11.8855 25.5445 11.6251 25.8407 12.2383Z" fill="#8195A6"/>
<path d="M25.5839 12.3224C25.8802 12.8852 21.0162 13.9772 17.7325 15.8925C14.4487 17.8078 11.634 20.0759 11.2883 19.5047C10.9921 18.9419 13.6339 15.8001 16.9177 13.9352C20.2097 11.9695 25.2465 11.7595 25.5839 12.3224Z" fill="#8195A6"/>
<path d="M25.2887 12.4063C25.585 12.9692 20.8939 14.0192 17.7418 15.8421C14.5403 17.6734 11.8162 19.8911 11.5117 19.3283C11.2154 18.7655 13.7749 15.7581 16.9682 13.9268C20.1285 12.0619 24.9925 11.8435 25.2887 12.4063Z" fill="#8195A6"/>
<path d="M24.9941 12.4988C25.2904 13.0196 20.8132 14.0192 17.7434 15.8085C14.6736 17.5978 12.0236 19.6811 11.7273 19.1603C11.431 18.6395 13.9 15.7245 16.9698 13.9352C20.0396 12.1879 24.6896 11.9695 24.9941 12.4988Z" fill="#8195A6"/>
<path d="M24.6898 12.5828C24.9861 13.1036 20.6818 14.0612 17.6943 15.8001C14.7068 17.497 12.1884 19.5467 11.8921 19.0175C11.5958 18.4967 13.9825 15.7077 16.9289 14.0108C19.9164 12.2804 24.3935 12.0619 24.6898 12.5828Z" fill="#8195A6"/>
<path d="M24.3909 12.6668C24.6461 13.1456 20.5557 14.1032 17.6917 15.7581C14.8359 17.413 12.3998 19.3703 12.1446 18.8495C11.8895 18.3706 14.1528 15.6741 17.0086 14.0192C19.8315 12.3643 24.1358 12.1879 24.3909 12.6668Z" fill="#8195A6"/>
<path d="M24.0958 12.7592C24.351 13.238 20.4252 14.1116 17.7011 15.7161C14.9276 17.329 12.6232 19.1519 12.368 18.6731C12.1129 18.1942 14.2856 15.6237 17.018 14.0108C19.7422 12.4483 23.8407 12.2803 24.0958 12.7592Z" fill="#8195A6"/>
<path d="M23.7997 12.8432C24.0548 13.28 20.3019 14.1452 17.6601 15.6741C15.0182 17.203 12.7961 18.9839 12.541 18.5051C12.2859 18.0682 14.3352 15.5901 17.0181 14.0612C19.66 12.5828 23.5363 12.4063 23.7997 12.8432Z" fill="#8195A6"/>
<path d="M23.4935 12.9272C23.7486 13.364 20.2097 14.1872 17.6501 15.6657C15.0906 17.1442 13.0002 18.8411 12.745 18.4043C12.4899 17.9674 14.4486 15.6153 17.0082 14.1368C19.5266 12.6668 23.2795 12.4988 23.4935 12.9272Z" fill="#8195A6"/>
<path d="M23.2004 13.0196C23.4144 13.4564 20.0895 14.2376 17.6534 15.6321C15.2255 17.0266 13.1763 18.6395 12.9623 18.2446C12.7483 17.8078 14.5836 15.5901 17.0115 14.1956C19.4476 12.7592 22.9865 12.6248 23.2004 13.0196Z" fill="#8195A6"/>
<path d="M22.9039 13.1036C23.1179 13.4984 19.9576 14.2376 17.612 15.5817C15.2665 16.9342 13.3489 18.4546 13.1349 18.0598C12.9209 17.665 14.6739 15.5313 17.0195 14.1872C19.365 12.8432 22.6899 12.7172 22.9039 13.1036Z" fill="#8195A6"/>
<path d="M22.5972 13.196C22.8112 13.5908 19.8237 14.2881 17.6098 15.5901C15.396 16.8922 13.5607 18.3287 13.3467 17.9422C13.1327 17.5474 14.7952 15.5481 17.0173 14.2377C19.2723 12.9776 22.3915 12.8432 22.5972 13.196Z" fill="#8195A6"/>
<path d="M22.3027 13.28C22.5167 13.6244 19.702 14.3217 17.6116 15.5397C15.48 16.7578 13.7764 18.1102 13.5624 17.7574C13.3484 17.413 14.9286 15.4977 17.019 14.2713C19.1506 13.0616 22.1299 12.9272 22.3027 13.28Z" fill="#8195A6"/>
<path d="M22.0456 13.406C22.2184 13.7504 19.6588 14.3637 17.6096 15.5397C15.6014 16.7158 13.9801 17.9758 13.7744 17.6314C13.5604 17.287 15.05 15.4977 17.0582 14.3217C19.0663 13.1456 21.8316 13.0616 22.0456 13.406Z" fill="#8195A6"/>
<path d="M21.7491 13.4984C21.922 13.8428 19.5353 14.4141 17.6094 15.4977C15.6836 16.5814 14.194 17.8078 13.98 17.455C13.8071 17.1106 15.1322 15.4557 17.0498 14.3217C18.9756 13.238 21.5352 13.1456 21.7491 13.4984Z" fill="#8195A6"/>
<path d="M21.456 13.5824C21.6288 13.8848 19.4067 14.4561 17.6208 15.4977C15.8184 16.5478 14.4111 17.6734 14.2465 17.329C14.0737 17.0266 15.3164 15.4557 17.1023 14.4141C18.8965 13.322 21.2832 13.28 21.456 13.5824Z" fill="#8195A6"/>
<path d="M21.1516 13.6748C21.3245 13.9772 19.2752 14.4561 17.5716 15.4557C15.868 16.4134 14.5841 17.455 14.4195 17.1526C14.2466 16.8502 15.3988 15.4137 17.1025 14.4141C18.7649 13.4564 20.9788 13.364 21.1516 13.6748Z" fill="#8195A6"/>
</g>
</g>
</g>
<path d="M58.1265 12.5828V30.6101H55.8633V12.5828H58.1265ZM65.4677 14.5821H60.0935V12.6248H73.1875V14.5821H67.7721V30.6437H65.4677V14.5821ZM79.072 30.6101L74.5948 12.5828H77.0227L79.1131 21.7224C79.6234 23.9821 80.0925 26.2083 80.4382 27.9471H80.4793C80.7756 26.1663 81.3352 24.0326 81.9278 21.6804L84.2734 12.5828H86.6601L88.7917 21.7224C89.3019 23.8561 89.771 25.9898 90.0262 27.9051H90.0673C90.4541 25.9478 90.9232 23.8981 91.4747 21.6804L93.8202 12.5828H96.1658L91.1784 30.6101H88.7505L86.5366 21.21C85.9852 18.8999 85.5984 17.161 85.3844 15.3297H85.3433C85.047 17.1106 84.619 18.8999 83.9771 21.21L81.4587 30.6101H79.072ZM113.449 21.42C113.449 27.6447 109.737 30.9125 105.26 30.9125C100.61 30.9125 97.3262 27.2079 97.3262 21.7728C97.3262 16.027 100.824 12.2804 105.515 12.2804C110.338 12.2804 113.449 16.069 113.449 21.42ZM99.7541 21.7224C99.7541 25.595 101.803 29.0392 105.383 29.0392C109.013 29.0392 111.054 25.6454 111.054 21.5544C111.054 17.9842 109.219 14.2377 105.425 14.2377C101.631 14.1957 99.7541 17.7658 99.7541 21.7224ZM116.436 12.8432C117.589 12.5828 119.251 12.4484 120.831 12.4484C123.259 12.4484 124.839 12.8852 125.95 13.9268C126.847 14.7081 127.358 15.9765 127.358 17.3626C127.358 19.7567 125.909 21.3276 124.033 21.9744V22.0585C125.399 22.5373 126.205 23.8393 126.633 25.7126C127.234 28.2412 127.613 29.98 128 30.6773H125.654C125.358 30.1565 124.971 28.6276 124.461 26.3679C123.95 23.8897 123.012 22.9321 120.922 22.8397H118.79V30.6353H116.527V12.8264L116.436 12.8432ZM118.691 21.0252H121.037C123.465 21.0252 125.004 19.6727 125.004 17.5894C125.004 15.2793 123.341 14.2377 120.955 14.2377C119.844 14.2377 119.078 14.3217 118.691 14.4561V21.0252ZM140.32 30.6101L138.057 26.6031C137.118 25.0826 136.567 24.0746 136.007 23.0329H135.966C135.456 24.0746 134.987 25.0322 134.049 26.6031L131.917 30.5681H129.316L134.732 21.4284L129.53 12.5072H132.172L134.518 16.7326C135.16 17.9086 135.67 18.8243 136.139 19.7819H136.221C136.732 18.6899 137.16 17.8666 137.802 16.7326L140.229 12.5072H142.83L137.456 21.3024L142.962 30.5765H140.32V30.6101Z" fill="#8195A6"/>
<path d="M146.849 9.66782C146.849 9.70982 146.808 9.70982 146.767 9.70982H146.512V9.315H146.594C146.767 9.315 146.849 9.357 146.849 9.49141V9.66782ZM147.146 9.53341C147.146 9.231 146.973 9.09659 146.594 9.09659H146.166V10.6675H146.463V10.0542H146.594L146.932 10.6675H147.269L146.841 9.97023C147.105 9.84423 147.146 9.70982 147.146 9.53341ZM147.401 10.5835C147.187 10.8019 146.973 10.8859 146.677 10.8859C146.38 10.8859 146.166 10.8019 145.952 10.5835C145.738 10.3651 145.656 10.1466 145.656 9.84423C145.656 9.54181 145.738 9.3234 145.952 9.10499C146.166 8.88658 146.38 8.80258 146.677 8.80258C146.973 8.80258 147.187 8.88658 147.401 9.10499C147.615 9.3234 147.697 9.54181 147.697 9.84423C147.697 10.1466 147.574 10.4071 147.401 10.5835ZM147.615 8.88658C147.36 8.62617 147.014 8.49176 146.677 8.49176C146.29 8.49176 145.994 8.62617 145.738 8.88658C145.483 9.14699 145.352 9.49981 145.352 9.84423C145.352 10.239 145.483 10.5415 145.738 10.8019C145.994 11.0623 146.339 11.1967 146.677 11.1967C147.063 11.1967 147.36 11.0623 147.615 10.8019C147.87 10.5415 148.002 10.239 148.002 9.84423C148.002 9.49141 147.87 9.14699 147.615 8.88658Z" fill="#8195A6"/>
</g>
<defs>
<clipPath id="clip0_1237_13546">
<rect width="148" height="44" fill="white"/>
</clipPath>
</defs>
</svg>
