<svg width="472" height="208" viewBox="0 0 472 208" fill="none" xmlns="http://www.w3.org/2000/svg">
<g opacity="0.2">
<path fill-rule="evenodd" clip-rule="evenodd" d="M20.8752 -69.5494C10.3435 -57.9265 1.15161 -34.5694 0.897358 -18.7972C0.708158 -7.00718 2.60594 0.357421 9.286 13.7407C25.5069 46.2302 50.5525 58.646 91.5086 54.4957C104.714 53.1572 120.566 52.9205 126.738 53.9693C137.985 55.8797 154.499 65.5222 164.306 75.9039C169.151 81.0337 168.913 82.0997 161.118 90.1058C144.262 107.423 121.11 114.017 92.3488 109.69C72.0916 106.642 57.9195 109.455 40.042 120.067C14.5011 135.228 1.68501 159.552 2.7895 190.774C3.08916 199.266 6.2415 205.901 22.4081 232.082C38.5249 258.185 41.9121 265.303 43.1523 275.686C45.3432 294.048 39.7918 311.164 24.4036 333.49C1.06126 367.36 -1.23667 391.868 16.1724 421.322C32.133 448.327 53.3717 459.696 83.8847 457.569C116.521 455.294 138.732 437.725 151.399 404.17C166.188 364.99 192.145 349.446 234.786 354.231C261.063 357.183 273.277 355.372 288.662 346.247C305.699 336.146 314.774 326.052 321.25 309.997C333.439 279.8 325.139 246.208 300.103 224.393C285.303 211.496 258.311 204.341 239.334 208.287C211.198 214.135 193.219 230.479 180.235 262.021C169.717 287.563 155.649 302.618 136.499 308.826C128.699 311.354 121.409 312.942 120.292 312.355C119.179 311.769 116.778 304.313 114.959 295.785C110.823 276.401 117.825 250.53 131.744 233.776C137.048 227.393 145.224 213.074 149.912 201.963C159.616 178.966 171.361 165.237 187.552 157.975C199.753 152.502 219.318 150.593 235.413 153.301C277.623 160.406 313.465 137.099 322.252 96.8281C331.389 54.9655 307.733 17.0219 266.557 7.50241C260.65 6.13753 246.645 6.27044 235.433 7.80131C208.584 11.4647 190.771 8.23521 174.22 -3.2909C161.538 -12.1243 159.962 -14.2233 147.331 -39.1114C131.862 -69.5824 124.333 -77.7922 103.577 -86.8176C77.7031 -98.0636 39.4779 -90.0823 20.8752 -69.5494Z" fill="url(#paint0_linear_1237_13963)"/>
<path d="M491.486 138.531C512.722 174.428 500.924 220.692 465.134 241.865C429.344 263.039 383.115 251.103 361.878 215.207C340.642 179.31 352.44 133.045 388.23 111.872C424.02 90.6985 470.249 102.634 491.486 138.531Z" fill="url(#paint1_linear_1237_13963)"/>
</g>
<defs>
<linearGradient id="paint0_linear_1237_13963" x1="39.0063" y1="-83.1952" x2="292.056" y2="344.542" gradientUnits="userSpaceOnUse">
<stop stop-color="white"/>
<stop offset="1" stop-color="#C34849"/>
</linearGradient>
<linearGradient id="paint1_linear_1237_13963" x1="39.0063" y1="-83.1952" x2="292.056" y2="344.542" gradientUnits="userSpaceOnUse">
<stop stop-color="white"/>
<stop offset="1" stop-color="#C34849"/>
</linearGradient>
</defs>
</svg>
