<svg width="56" height="40" viewBox="0 0 56 40" fill="none" xmlns="http://www.w3.org/2000/svg">
<path d="M26 26C27.775 25.9996 29.4988 25.4054 30.897 24.312L35.293 28.708L36.707 27.294L32.311 22.898C33.405 21.4997 33.9996 19.7754 34 18C34 13.589 30.411 10 26 10C21.589 10 18 13.589 18 18C18 22.411 21.589 26 26 26ZM26 12C29.309 12 32 14.691 32 18C32 21.309 29.309 24 26 24C22.691 24 20 21.309 20 18C20 14.691 22.691 12 26 12Z" fill="white"/>
<rect x="0.5" y="0.5" width="55" height="39" rx="3.5" stroke="white"/>
</svg>
