<svg width="80" height="80" viewBox="0 0 80 80" fill="none" xmlns="http://www.w3.org/2000/svg">
<g id="Quote-icon">
<path id="Vector" d="M21.6662 33.3331C20.9228 33.3331 20.2095 33.4464 19.4995 33.5498C19.7295 32.7764 19.9662 31.9898 20.3462 31.2831C20.7262 30.2564 21.3195 29.3664 21.9095 28.4698C22.4028 27.4998 23.2728 26.8431 23.9128 26.0131C24.5828 25.2064 25.4962 24.6698 26.2195 23.9998C26.9295 23.2998 27.8595 22.9498 28.5995 22.4564C29.3728 22.0131 30.0462 21.5231 30.7662 21.2898L32.5628 20.5498L34.1428 19.8931L32.5262 13.4331L30.5362 13.9131C29.8995 14.0731 29.1228 14.2598 28.2395 14.4831C27.3362 14.6498 26.3728 15.1064 25.2995 15.5231C24.2395 15.9964 23.0128 16.3164 21.8728 17.0764C20.7262 17.8031 19.4028 18.4098 18.2362 19.3831C17.1062 20.3864 15.7428 21.2564 14.7362 22.5331C13.6362 23.7264 12.5495 24.9798 11.7062 26.4064C10.7295 27.7664 10.0662 29.2598 9.36617 30.7364C8.73284 32.2131 8.22284 33.7231 7.80617 35.1898C7.01617 38.1298 6.66284 40.9231 6.52617 43.3131C6.41284 45.7064 6.47951 47.6964 6.61951 49.1364C6.66951 49.8164 6.76284 50.4764 6.82951 50.9331L6.91284 51.4931L6.99951 51.4731C7.59238 54.2425 8.95719 56.7875 10.9361 58.8137C12.9149 60.8399 15.427 62.2644 18.1816 62.9225C20.9363 63.5806 23.821 63.4454 26.502 62.5326C29.1831 61.6197 31.5509 59.9664 33.3315 57.764C35.1122 55.5617 36.233 52.9002 36.5642 50.0874C36.8955 47.2747 36.4236 44.4256 35.2033 41.8698C33.9829 39.3141 32.064 37.156 29.6683 35.6453C27.2727 34.1345 24.4984 33.3329 21.6662 33.3331ZM58.3328 33.3331C57.5895 33.3331 56.8762 33.4464 56.1662 33.5498C56.3962 32.7764 56.6328 31.9898 57.0128 31.2831C57.3928 30.2564 57.9862 29.3664 58.5762 28.4698C59.0695 27.4998 59.9395 26.8431 60.5795 26.0131C61.2495 25.2064 62.1628 24.6698 62.8862 23.9998C63.5962 23.2998 64.5262 22.9498 65.2662 22.4564C66.0395 22.0131 66.7128 21.5231 67.4328 21.2898L69.2295 20.5498L70.8095 19.8931L69.1928 13.4331L67.2028 13.9131C66.5662 14.0731 65.7895 14.2598 64.9062 14.4831C64.0028 14.6498 63.0395 15.1064 61.9662 15.5231C60.9095 15.9998 59.6795 16.3164 58.5395 17.0798C57.3928 17.8064 56.0695 18.4131 54.9028 19.3864C53.7728 20.3898 52.4095 21.2598 51.4028 22.5331C50.3028 23.7264 49.2162 24.9798 48.3728 26.4064C47.3962 27.7664 46.7328 29.2598 46.0328 30.7364C45.3995 32.2131 44.8895 33.7231 44.4728 35.1898C43.6828 38.1298 43.3295 40.9231 43.1928 43.3131C43.0795 45.7064 43.1462 47.6964 43.2862 49.1364C43.3362 49.8164 43.4295 50.4764 43.4962 50.9331L43.5795 51.4931L43.6662 51.4731C44.259 54.2425 45.6239 56.7875 47.6027 58.8137C49.5816 60.8399 52.0936 62.2644 54.8483 62.9225C57.603 63.5806 60.4877 63.4454 63.1687 62.5326C65.8497 61.6197 68.2175 59.9664 69.9982 57.764C71.7789 55.5617 72.8997 52.9002 73.2309 50.0874C73.5621 47.2747 73.0903 44.4256 71.8699 41.8698C70.6496 39.3141 68.7306 37.156 66.335 35.6453C63.9394 34.1345 61.165 33.3329 58.3328 33.3331Z" fill="#C34849"/>
</g>
</svg>
